G75*
%MOIN*%
%OFA0B0*%
%FSLAX24Y24*%
%IPPOS*%
%LPD*%
%AMOC8*
5,1,8,0,0,1.08239X$1,22.5*
%
%ADD10R,0.0354X0.0276*%
%ADD11R,0.0157X0.0531*%
%ADD12R,0.0591X0.0748*%
%ADD13R,0.0256X0.0492*%
%ADD14R,0.0315X0.0315*%
%ADD15R,0.0276X0.0354*%
%ADD16R,0.1050X0.0900*%
%ADD17R,0.0300X0.0500*%
%ADD18R,0.0472X0.0138*%
%ADD19R,0.0394X0.0394*%
%ADD20R,0.0138X0.0472*%
%ADD21C,0.0197*%
%ADD22R,0.0866X0.0413*%
%ADD23R,0.0413X0.0394*%
%ADD24R,0.0394X0.0591*%
%ADD25R,0.0433X0.0394*%
%ADD26R,0.0433X0.0551*%
%ADD27R,0.0197X0.0394*%
%ADD28R,0.0394X0.0433*%
%ADD29R,0.0236X0.0138*%
%ADD30R,0.0551X0.0748*%
%ADD31R,0.0327X0.0248*%
%ADD32R,0.0472X0.0787*%
D10*
X007577Y002087D03*
X007577Y002599D03*
X007581Y007522D03*
X007581Y008034D03*
X005887Y008067D03*
X005427Y008067D03*
X004947Y008067D03*
X004487Y008067D03*
X004057Y008067D03*
X003637Y008067D03*
X003637Y008579D03*
X004057Y008579D03*
X004487Y008579D03*
X004947Y008579D03*
X005427Y008579D03*
X005887Y008579D03*
X005837Y009127D03*
X005837Y009639D03*
X005837Y010027D03*
X005837Y010539D03*
X004147Y010059D03*
X004147Y009547D03*
X002617Y011397D03*
X002617Y011909D03*
X007587Y012537D03*
X007587Y013049D03*
D11*
X005498Y012780D03*
X005243Y012780D03*
X004987Y012780D03*
X004731Y012780D03*
X004475Y012780D03*
D12*
X004593Y013829D03*
X005380Y013833D03*
D13*
X006682Y010571D03*
X007292Y010571D03*
X007292Y009095D03*
X006682Y009095D03*
X003292Y009095D03*
X002682Y009095D03*
X002682Y010571D03*
X003292Y010571D03*
D14*
X006380Y008620D03*
X006380Y008030D03*
D15*
X006951Y008483D03*
X007463Y008483D03*
X007153Y012553D03*
X007153Y013023D03*
X006641Y013023D03*
X006641Y012553D03*
X003353Y013943D03*
X002841Y013943D03*
X003961Y002443D03*
X004473Y002443D03*
X004831Y002443D03*
X005343Y002443D03*
X005711Y002453D03*
X006223Y002453D03*
X006641Y002453D03*
X007153Y002453D03*
D16*
X007577Y013813D03*
D17*
X006652Y013813D03*
D18*
X006975Y007074D03*
X006975Y006799D03*
X006975Y006523D03*
X006975Y006248D03*
X006975Y005972D03*
X006975Y005696D03*
X006975Y005421D03*
X006975Y005145D03*
X006975Y004870D03*
X006975Y004594D03*
X006975Y004319D03*
X006975Y004043D03*
X006975Y003767D03*
X006975Y003492D03*
X002998Y003492D03*
X002998Y003767D03*
X002998Y004043D03*
X002998Y004319D03*
X002998Y004594D03*
X002998Y004870D03*
X002998Y005145D03*
X002998Y005421D03*
X002998Y005696D03*
X002998Y005972D03*
X002998Y006248D03*
X002998Y006523D03*
X002998Y006799D03*
X002998Y007074D03*
D19*
X002959Y007507D03*
X004042Y006228D03*
X004987Y006228D03*
X005932Y006228D03*
X005932Y005283D03*
X004987Y005283D03*
X004042Y005283D03*
X004042Y004338D03*
X004987Y004338D03*
X005932Y004338D03*
X007014Y003059D03*
X002959Y003059D03*
X007014Y007507D03*
D20*
X006640Y007468D03*
X006365Y007468D03*
X006089Y007468D03*
X005813Y007468D03*
X005538Y007468D03*
X005262Y007468D03*
X004987Y007468D03*
X004711Y007468D03*
X004435Y007468D03*
X004160Y007468D03*
X003884Y007468D03*
X003609Y007468D03*
X003333Y007468D03*
X003333Y003098D03*
X003609Y003098D03*
X003884Y003098D03*
X004160Y003098D03*
X004435Y003098D03*
X004711Y003098D03*
X004987Y003098D03*
X005262Y003098D03*
X005538Y003098D03*
X005813Y003098D03*
X006089Y003098D03*
X006365Y003098D03*
X006640Y003098D03*
D21*
X003609Y006858D03*
D22*
X002743Y001362D03*
X002743Y002524D03*
D23*
X003344Y001943D03*
D24*
X003402Y000733D03*
X006551Y000733D03*
D25*
X006552Y001723D03*
X007221Y001723D03*
X004231Y001773D03*
X003562Y001773D03*
D26*
X004632Y009262D03*
X005341Y009262D03*
X005341Y010404D03*
X004632Y010404D03*
D27*
X003273Y012649D03*
X002761Y012649D03*
X003017Y013357D03*
D28*
X003077Y011828D03*
X003077Y011158D03*
X007487Y011188D03*
X007487Y011858D03*
D29*
X007028Y012007D03*
X007028Y011633D03*
X007028Y011259D03*
X005925Y011259D03*
X005925Y011633D03*
X005925Y012007D03*
D30*
X006477Y011633D03*
D31*
X005457Y011906D03*
X005457Y011000D03*
D32*
X004857Y011443D03*
X003597Y011443D03*
M02*
