G75*
%MOIN*%
%OFA0B0*%
%FSLAX24Y24*%
%IPPOS*%
%LPD*%
%AMOC8*
5,1,8,0,0,1.08239X$1,22.5*
%
%ADD10C,0.0080*%
%ADD11C,0.0000*%
D10*
X000987Y001333D02*
X001987Y000333D01*
X007987Y000333D01*
X008987Y001333D01*
X008987Y014333D01*
X000987Y014333D01*
X000987Y001333D01*
D11*
X004101Y013006D02*
X004103Y013027D01*
X004109Y013047D01*
X004118Y013067D01*
X004130Y013084D01*
X004145Y013098D01*
X004163Y013110D01*
X004183Y013118D01*
X004203Y013123D01*
X004224Y013124D01*
X004245Y013121D01*
X004265Y013115D01*
X004284Y013104D01*
X004301Y013091D01*
X004314Y013075D01*
X004325Y013057D01*
X004333Y013037D01*
X004337Y013017D01*
X004337Y012995D01*
X004333Y012975D01*
X004325Y012955D01*
X004314Y012937D01*
X004301Y012921D01*
X004284Y012908D01*
X004265Y012897D01*
X004245Y012891D01*
X004224Y012888D01*
X004203Y012889D01*
X004183Y012894D01*
X004163Y012902D01*
X004145Y012914D01*
X004130Y012928D01*
X004118Y012945D01*
X004109Y012965D01*
X004103Y012985D01*
X004101Y013006D01*
X004000Y013695D02*
X004000Y013971D01*
X003999Y013988D01*
X003994Y014005D01*
X003987Y014020D01*
X003977Y014034D01*
X003965Y014046D01*
X003951Y014056D01*
X003936Y014063D01*
X003919Y014068D01*
X003902Y014069D01*
X003884Y014067D01*
X003867Y014063D01*
X003851Y014055D01*
X003836Y014045D01*
X003824Y014033D01*
X003814Y014018D01*
X003806Y014002D01*
X003802Y013985D01*
X003800Y013967D01*
X003800Y013699D01*
X003802Y013681D01*
X003806Y013664D01*
X003814Y013648D01*
X003824Y013633D01*
X003836Y013621D01*
X003851Y013611D01*
X003867Y013603D01*
X003884Y013599D01*
X003902Y013597D01*
X003919Y013598D01*
X003936Y013603D01*
X003951Y013610D01*
X003965Y013620D01*
X003977Y013632D01*
X003987Y013646D01*
X003994Y013661D01*
X003999Y013678D01*
X004000Y013695D01*
X005636Y013006D02*
X005638Y013027D01*
X005644Y013047D01*
X005653Y013067D01*
X005665Y013084D01*
X005680Y013098D01*
X005698Y013110D01*
X005718Y013118D01*
X005738Y013123D01*
X005759Y013124D01*
X005780Y013121D01*
X005800Y013115D01*
X005819Y013104D01*
X005836Y013091D01*
X005849Y013075D01*
X005860Y013057D01*
X005868Y013037D01*
X005872Y013017D01*
X005872Y012995D01*
X005868Y012975D01*
X005860Y012955D01*
X005849Y012937D01*
X005836Y012921D01*
X005819Y012908D01*
X005800Y012897D01*
X005780Y012891D01*
X005759Y012888D01*
X005738Y012889D01*
X005718Y012894D01*
X005698Y012902D01*
X005680Y012914D01*
X005665Y012928D01*
X005653Y012945D01*
X005644Y012965D01*
X005638Y012985D01*
X005636Y013006D01*
X005979Y013699D02*
X005979Y013967D01*
X005981Y013985D01*
X005985Y014002D01*
X005993Y014018D01*
X006003Y014033D01*
X006015Y014045D01*
X006030Y014055D01*
X006046Y014063D01*
X006063Y014067D01*
X006081Y014069D01*
X006098Y014068D01*
X006115Y014063D01*
X006130Y014056D01*
X006144Y014046D01*
X006156Y014034D01*
X006166Y014020D01*
X006173Y014005D01*
X006178Y013988D01*
X006179Y013971D01*
X006180Y013971D02*
X006180Y013695D01*
X006179Y013695D02*
X006178Y013678D01*
X006173Y013661D01*
X006166Y013646D01*
X006156Y013632D01*
X006144Y013620D01*
X006130Y013610D01*
X006115Y013603D01*
X006098Y013598D01*
X006081Y013597D01*
X006063Y013599D01*
X006046Y013603D01*
X006030Y013611D01*
X006015Y013621D01*
X006003Y013633D01*
X005993Y013648D01*
X005985Y013664D01*
X005981Y013681D01*
X005979Y013699D01*
M02*
