G75*
%MOIN*%
%OFA0B0*%
%FSLAX24Y24*%
%IPPOS*%
%LPD*%
%AMOC8*
5,1,8,0,0,1.08239X$1,22.5*
%
%ADD10C,0.0318*%
%ADD11C,0.0550*%
%ADD12C,0.0278*%
%ADD13C,0.0280*%
%ADD14C,0.0100*%
%ADD15C,0.0060*%
%ADD16C,0.0120*%
%ADD17C,0.0360*%
D10*
X003894Y013833D03*
X006079Y013833D03*
D11*
X008487Y012833D03*
X008487Y011833D03*
X008487Y010833D03*
X008487Y009833D03*
X008487Y008833D03*
X008487Y007833D03*
X008487Y006833D03*
X008487Y005833D03*
X008487Y004833D03*
X008487Y003833D03*
X008487Y002833D03*
X008487Y001833D03*
X001487Y001833D03*
X001487Y002833D03*
X001487Y003833D03*
X001487Y004833D03*
X001487Y005833D03*
X001487Y006833D03*
X001487Y007833D03*
X001487Y008833D03*
X001487Y009833D03*
X001487Y010833D03*
X001487Y011833D03*
X001487Y012833D03*
D12*
X006247Y008933D03*
X005187Y008763D03*
X007167Y007753D03*
X007867Y004903D03*
X007857Y003893D03*
X007217Y002853D03*
X005867Y002083D03*
X005137Y002093D03*
X005147Y001293D03*
X004187Y001293D03*
X003367Y001293D03*
X002127Y001293D03*
X002577Y002923D03*
X003577Y004203D03*
X004997Y004783D03*
X005947Y004793D03*
X002367Y006653D03*
X002167Y005753D03*
X002767Y007753D03*
X002757Y008083D03*
X006157Y001293D03*
X006957Y001293D03*
X007047Y000923D03*
X007047Y000553D03*
X007897Y000553D03*
X008297Y000953D03*
D13*
X008097Y003223D03*
X008097Y004223D03*
X008097Y005223D03*
X007547Y006223D03*
X007557Y006603D03*
X008137Y006433D03*
X006537Y006983D03*
X006187Y006873D03*
X005827Y006873D03*
X005057Y006793D03*
X004527Y006333D03*
X004137Y006873D03*
X003537Y006243D03*
X003977Y005753D03*
X003567Y004803D03*
X004497Y004773D03*
X005477Y003923D03*
X005857Y003883D03*
X006227Y003863D03*
X006527Y003623D03*
X006487Y004433D03*
X006407Y005633D03*
X006437Y006203D03*
X007856Y008485D03*
X006907Y008813D03*
X006217Y009323D03*
X006237Y010413D03*
X005857Y010903D03*
X006297Y010973D03*
X006727Y011043D03*
X007617Y010573D03*
X005697Y011763D03*
X006697Y012153D03*
X005287Y013243D03*
X004897Y013243D03*
X003597Y012433D03*
X003757Y012133D03*
X004037Y012133D03*
X004137Y010853D03*
X003737Y010573D03*
X002617Y011063D03*
X002377Y010573D03*
X002347Y009893D03*
X004147Y009143D03*
X001987Y007533D03*
X002567Y005693D03*
X002567Y005153D03*
X002057Y003833D03*
X003997Y003603D03*
D14*
X003737Y010573D02*
X004617Y010573D01*
X005027Y010983D01*
X005027Y012973D01*
X005287Y013243D01*
X004897Y013243D02*
X004827Y013173D01*
X004827Y011153D01*
X004527Y010853D01*
X004137Y010853D01*
D15*
X001487Y001468D02*
X001487Y001183D01*
X001913Y001183D01*
X001898Y001198D01*
X001898Y001388D01*
X002032Y001522D01*
X002222Y001522D01*
X002356Y001388D01*
X002356Y001198D01*
X002341Y001183D01*
X003153Y001183D01*
X003138Y001198D01*
X003138Y001388D01*
X003272Y001522D01*
X003462Y001522D01*
X003596Y001388D01*
X003596Y001198D01*
X003581Y001183D01*
X003973Y001183D01*
X003958Y001198D01*
X003958Y001388D01*
X004092Y001522D01*
X004282Y001522D01*
X004416Y001388D01*
X004416Y001198D01*
X004401Y001183D01*
X004933Y001183D01*
X004918Y001198D01*
X004918Y001388D01*
X005052Y001522D01*
X005242Y001522D01*
X005376Y001388D01*
X005376Y001198D01*
X005361Y001183D01*
X005943Y001183D01*
X005928Y001198D01*
X005928Y001388D01*
X006062Y001522D01*
X006252Y001522D01*
X006386Y001388D01*
X006386Y001198D01*
X006371Y001183D01*
X006743Y001183D01*
X006728Y001198D01*
X006728Y001388D01*
X006862Y001522D01*
X007052Y001522D01*
X007186Y001388D01*
X007186Y001198D01*
X007171Y001183D01*
X008487Y001183D01*
X008487Y001468D01*
X008414Y001468D01*
X008280Y001524D01*
X008177Y001626D01*
X008122Y001760D01*
X008122Y001906D01*
X008177Y002040D01*
X008280Y002143D01*
X008414Y002198D01*
X008487Y002198D01*
X008487Y002468D01*
X008414Y002468D01*
X008280Y002524D01*
X008177Y002626D01*
X008122Y002760D01*
X008122Y002906D01*
X008158Y002993D01*
X008001Y002993D01*
X007867Y003128D01*
X007867Y003318D01*
X008001Y003453D01*
X008192Y003453D01*
X008327Y003318D01*
X008327Y003162D01*
X008414Y003198D01*
X008487Y003198D01*
X008487Y003468D01*
X008414Y003468D01*
X008280Y003524D01*
X008177Y003626D01*
X008122Y003760D01*
X008122Y003906D01*
X008158Y003993D01*
X008081Y003993D01*
X008086Y003988D01*
X008086Y003798D01*
X007952Y003664D01*
X007762Y003664D01*
X007628Y003798D01*
X007628Y003988D01*
X007762Y004122D01*
X007872Y004122D01*
X007867Y004128D01*
X007867Y004318D01*
X008001Y004453D01*
X008192Y004453D01*
X008327Y004318D01*
X008327Y004162D01*
X008414Y004198D01*
X008487Y004198D01*
X008487Y004468D01*
X008414Y004468D01*
X008280Y004524D01*
X008177Y004626D01*
X008122Y004760D01*
X008122Y004906D01*
X008158Y004993D01*
X008096Y004993D01*
X008096Y004808D01*
X007962Y004674D01*
X007772Y004674D01*
X007638Y004808D01*
X007638Y004998D01*
X007772Y005132D01*
X007867Y005132D01*
X007867Y005318D01*
X008001Y005453D01*
X008192Y005453D01*
X008327Y005318D01*
X008327Y005162D01*
X008414Y005198D01*
X008487Y005198D01*
X008487Y005468D01*
X008414Y005468D01*
X008280Y005524D01*
X008177Y005626D01*
X008122Y005760D01*
X008122Y005906D01*
X008177Y006040D01*
X008280Y006143D01*
X008414Y006198D01*
X008487Y006198D01*
X008487Y006468D01*
X008414Y006468D01*
X008367Y006488D01*
X008367Y006338D01*
X008232Y006203D01*
X008041Y006203D01*
X007907Y006338D01*
X007907Y006528D01*
X007959Y006581D01*
X007614Y006933D01*
X007299Y006933D01*
X006927Y006561D01*
X006839Y006473D01*
X006355Y006473D01*
X006185Y006643D01*
X006091Y006643D01*
X006007Y006728D01*
X005922Y006643D01*
X005731Y006643D01*
X005597Y006778D01*
X005597Y006968D01*
X005731Y007103D01*
X005922Y007103D01*
X006007Y007018D01*
X006091Y007103D01*
X006282Y007103D01*
X006307Y007078D01*
X006307Y007078D01*
X006441Y007213D01*
X006632Y007213D01*
X006767Y007078D01*
X006767Y006888D01*
X006652Y006773D01*
X006715Y006773D01*
X007087Y007145D01*
X007175Y007233D01*
X007615Y007233D01*
X007616Y007234D01*
X007677Y007233D01*
X007739Y007233D01*
X007739Y007232D01*
X007740Y007232D01*
X007783Y007189D01*
X007827Y007145D01*
X007827Y007144D01*
X008122Y006844D01*
X008122Y006906D01*
X008177Y007040D01*
X008280Y007143D01*
X008414Y007198D01*
X008487Y007198D01*
X008487Y007468D01*
X008414Y007468D01*
X008280Y007524D01*
X008177Y007626D01*
X008122Y007760D01*
X008122Y007906D01*
X008177Y008040D01*
X008280Y008143D01*
X008414Y008198D01*
X008487Y008198D01*
X008487Y008468D01*
X008414Y008468D01*
X008280Y008524D01*
X008177Y008626D01*
X008122Y008760D01*
X008122Y008906D01*
X008177Y009040D01*
X008280Y009143D01*
X008414Y009198D01*
X008487Y009198D01*
X008487Y009468D01*
X008414Y009468D01*
X008280Y009524D01*
X008177Y009626D01*
X008122Y009760D01*
X008122Y009906D01*
X008177Y010040D01*
X008280Y010143D01*
X008414Y010198D01*
X008487Y010198D01*
X008487Y010468D01*
X008414Y010468D01*
X008280Y010524D01*
X008177Y010626D01*
X008122Y010760D01*
X008122Y010906D01*
X008177Y011040D01*
X008280Y011143D01*
X008414Y011198D01*
X008487Y011198D01*
X008487Y011468D01*
X008414Y011468D01*
X008280Y011524D01*
X008177Y011626D01*
X008122Y011760D01*
X008122Y011906D01*
X008177Y012040D01*
X008280Y012143D01*
X008414Y012198D01*
X008487Y012198D01*
X008487Y012803D01*
X008457Y012803D01*
X008457Y012428D01*
X008447Y012428D01*
X008369Y012444D01*
X008295Y012474D01*
X008228Y012518D01*
X008172Y012575D01*
X008128Y012641D01*
X008097Y012715D01*
X008082Y012793D01*
X008082Y012803D01*
X008457Y012803D01*
X008457Y012863D01*
X008457Y013238D01*
X008447Y013238D01*
X008369Y013223D01*
X008295Y013192D01*
X008228Y013148D01*
X008172Y013091D01*
X008128Y013025D01*
X008097Y012951D01*
X008082Y012873D01*
X008082Y012863D01*
X008457Y012863D01*
X008487Y012863D01*
X008487Y014223D01*
X006270Y014223D01*
X006288Y014204D01*
X006291Y014203D01*
X006296Y014195D01*
X006302Y014188D01*
X006302Y014185D01*
X006318Y014159D01*
X006321Y014158D01*
X006324Y014149D01*
X006329Y014141D01*
X006329Y014138D01*
X006339Y014110D01*
X006342Y014108D01*
X006343Y014098D01*
X006346Y014089D01*
X006345Y014086D01*
X006350Y014057D01*
X006352Y014055D01*
X006352Y014045D01*
X006353Y014036D01*
X006352Y014033D01*
X006352Y013632D01*
X006354Y013629D01*
X006352Y013620D01*
X006352Y013611D01*
X006349Y013608D01*
X006342Y013575D01*
X006343Y013572D01*
X006340Y013564D01*
X006338Y013554D01*
X006335Y013553D01*
X006322Y013522D01*
X006322Y013519D01*
X006317Y013511D01*
X006313Y013503D01*
X006310Y013501D01*
X006291Y013474D01*
X006291Y013471D01*
X006284Y013464D01*
X006279Y013456D01*
X006275Y013456D01*
X006252Y013433D01*
X006251Y013430D01*
X006243Y013424D01*
X006236Y013418D01*
X006233Y013418D01*
X006205Y013400D01*
X006204Y013397D01*
X006195Y013393D01*
X006187Y013388D01*
X006184Y013389D01*
X006153Y013377D01*
X006151Y013374D01*
X006142Y013372D01*
X006133Y013369D01*
X006130Y013370D01*
X006097Y013364D01*
X006095Y013362D01*
X006085Y013362D01*
X006076Y013360D01*
X006073Y013362D01*
X006041Y013363D01*
X006039Y013361D01*
X006029Y013363D01*
X006019Y013363D01*
X006017Y013365D01*
X005990Y013369D01*
X005987Y013368D01*
X005978Y013371D01*
X005969Y013373D01*
X005967Y013376D01*
X005940Y013387D01*
X005937Y013386D01*
X005929Y013391D01*
X005921Y013395D01*
X005919Y013398D01*
X005896Y013414D01*
X005892Y013415D01*
X005886Y013421D01*
X005879Y013427D01*
X005878Y013430D01*
X005859Y013452D01*
X005855Y013453D01*
X005851Y013460D01*
X005845Y013467D01*
X005845Y013471D01*
X005831Y013496D01*
X005827Y013498D01*
X005825Y013506D01*
X005820Y013514D01*
X005821Y013518D01*
X005813Y013545D01*
X005810Y013548D01*
X005810Y013557D01*
X005807Y013566D01*
X005809Y013569D01*
X005807Y013595D01*
X005807Y013596D01*
X005807Y013607D01*
X005806Y013619D01*
X005807Y013619D01*
X005807Y014042D01*
X005806Y014044D01*
X005807Y014055D01*
X005807Y014065D01*
X005808Y014067D01*
X005810Y014090D01*
X005809Y014093D01*
X005811Y014102D01*
X005812Y014111D01*
X005815Y014113D01*
X005822Y014137D01*
X005821Y014140D01*
X005826Y014149D01*
X005828Y014158D01*
X005831Y014159D01*
X005843Y014181D01*
X005843Y014185D01*
X005849Y014192D01*
X005853Y014200D01*
X005856Y014201D01*
X005872Y014221D01*
X005872Y014223D01*
X004101Y014223D01*
X004101Y014221D01*
X004117Y014201D01*
X004120Y014200D01*
X004125Y014192D01*
X004131Y014185D01*
X004130Y014181D01*
X004142Y014159D01*
X004145Y014158D01*
X004148Y014149D01*
X004152Y014140D01*
X004151Y014137D01*
X004159Y014113D01*
X004161Y014111D01*
X004162Y014102D01*
X004165Y014093D01*
X004163Y014090D01*
X004165Y014067D01*
X004167Y014065D01*
X004167Y014055D01*
X004168Y014044D01*
X004167Y014042D01*
X004167Y013635D01*
X004167Y013634D01*
X004167Y013622D01*
X004167Y013611D01*
X004166Y013610D01*
X004165Y013587D01*
X004167Y013585D01*
X004164Y013575D01*
X004164Y013566D01*
X004161Y013564D01*
X004155Y013540D01*
X004156Y013536D01*
X004152Y013528D01*
X004150Y013519D01*
X004147Y013517D01*
X004136Y013494D01*
X004137Y013491D01*
X004131Y013484D01*
X004127Y013475D01*
X004124Y013474D01*
X004109Y013454D01*
X004109Y013451D01*
X004102Y013444D01*
X004096Y013437D01*
X004765Y013437D01*
X004801Y013473D02*
X004667Y013338D01*
X004667Y013148D01*
X004687Y013128D01*
X004687Y011211D01*
X004469Y010993D01*
X004322Y010993D01*
X004232Y011083D01*
X004041Y011083D01*
X003907Y010948D01*
X003907Y010758D01*
X003951Y010713D01*
X003922Y010713D01*
X003832Y010803D01*
X003641Y010803D01*
X003507Y010668D01*
X003507Y010478D01*
X003641Y010343D01*
X003832Y010343D01*
X003922Y010433D01*
X004675Y010433D01*
X005085Y010843D01*
X005167Y010925D01*
X005167Y012917D01*
X005260Y013013D01*
X005382Y013013D01*
X005469Y013100D01*
X005462Y013077D01*
X005459Y013075D01*
X005458Y013065D01*
X005456Y013056D01*
X005457Y013053D01*
X005454Y013019D01*
X005452Y013016D01*
X005453Y013006D01*
X005452Y012997D01*
X005454Y012994D01*
X005457Y012959D01*
X005455Y012957D01*
X005458Y012947D01*
X005458Y012938D01*
X005461Y012936D01*
X005471Y012902D01*
X005470Y012899D01*
X005474Y012890D01*
X005477Y012881D01*
X005480Y012880D01*
X005497Y012848D01*
X005496Y012845D01*
X005502Y012838D01*
X005507Y012829D01*
X005510Y012828D01*
X005532Y012801D01*
X005533Y012798D01*
X005540Y012792D01*
X005546Y012784D01*
X005549Y012784D01*
X005577Y012762D01*
X005578Y012758D01*
X005586Y012754D01*
X005593Y012748D01*
X005597Y012748D01*
X005628Y012732D01*
X005629Y012729D01*
X005638Y012726D01*
X005647Y012722D01*
X005650Y012723D01*
X005684Y012713D01*
X005686Y012710D01*
X005696Y012710D01*
X005705Y012707D01*
X005708Y012709D01*
X005743Y012706D01*
X005745Y012703D01*
X005755Y012705D01*
X005764Y012704D01*
X005767Y012706D01*
X005801Y012710D01*
X005804Y012708D01*
X005813Y012711D01*
X005823Y012712D01*
X005825Y012715D01*
X005858Y012725D01*
X005861Y012724D01*
X005869Y012729D01*
X005879Y012731D01*
X005880Y012734D01*
X005911Y012751D01*
X005914Y012751D01*
X005921Y012757D01*
X005930Y012761D01*
X005931Y012764D01*
X005957Y012786D01*
X005961Y012787D01*
X005967Y012794D01*
X005974Y012800D01*
X005974Y012803D01*
X005996Y012830D01*
X006000Y012831D01*
X006004Y012839D01*
X006010Y012847D01*
X006010Y012850D01*
X006026Y012881D01*
X006029Y012882D01*
X006032Y012891D01*
X006037Y012900D01*
X006036Y012903D01*
X006046Y012936D01*
X006049Y012938D01*
X006050Y012947D01*
X006053Y012956D01*
X006051Y012959D01*
X006055Y012994D01*
X006057Y012996D01*
X006056Y013006D01*
X006057Y013015D01*
X006055Y013018D01*
X006052Y013053D01*
X006054Y013056D01*
X006051Y013065D01*
X006050Y013074D01*
X006048Y013076D01*
X006038Y013110D01*
X006039Y013113D01*
X006035Y013121D01*
X006032Y013130D01*
X006029Y013132D01*
X006013Y013163D01*
X006013Y013166D01*
X006008Y013173D01*
X006003Y013182D01*
X006000Y013183D01*
X005978Y013210D01*
X005978Y013213D01*
X005970Y013219D01*
X005965Y013227D01*
X005961Y013227D01*
X005934Y013249D01*
X005933Y013252D01*
X005925Y013257D01*
X005918Y013263D01*
X005915Y013263D01*
X005884Y013279D01*
X005882Y013282D01*
X005873Y013285D01*
X005865Y013289D01*
X005862Y013289D01*
X005828Y013299D01*
X005826Y013301D01*
X005817Y013302D01*
X005808Y013305D01*
X005805Y013303D01*
X005772Y013307D01*
X005771Y013308D01*
X005765Y013308D01*
X005764Y013309D01*
X005756Y013308D01*
X005749Y013309D01*
X005748Y013308D01*
X005742Y013308D01*
X005741Y013307D01*
X005708Y013303D01*
X005705Y013305D01*
X005696Y013302D01*
X005686Y013301D01*
X005684Y013299D01*
X005650Y013289D01*
X005647Y013290D01*
X005639Y013285D01*
X005630Y013282D01*
X005628Y013279D01*
X005597Y013263D01*
X005594Y013263D01*
X005587Y013257D01*
X005578Y013253D01*
X005577Y013250D01*
X005550Y013227D01*
X005547Y013227D01*
X005541Y013220D01*
X005534Y013214D01*
X005533Y013210D01*
X005517Y013190D01*
X005517Y013338D01*
X005382Y013473D01*
X005191Y013473D01*
X005092Y013373D01*
X004992Y013473D01*
X004801Y013473D01*
X004707Y013379D02*
X004001Y013379D01*
X004012Y013382D02*
X004015Y013382D01*
X004023Y013386D01*
X004032Y013390D01*
X004033Y013393D01*
X004055Y013405D01*
X004058Y013405D01*
X004065Y013411D01*
X004073Y013416D01*
X004074Y013419D01*
X004093Y013436D01*
X004096Y013437D01*
X004137Y013496D02*
X005831Y013496D01*
X005810Y013554D02*
X004159Y013554D01*
X004167Y013613D02*
X005806Y013613D01*
X005807Y013671D02*
X004167Y013671D01*
X004167Y013730D02*
X005807Y013730D01*
X005807Y013788D02*
X004167Y013788D01*
X004167Y013847D02*
X005807Y013847D01*
X005807Y013905D02*
X004167Y013905D01*
X004167Y013964D02*
X005807Y013964D01*
X005807Y014022D02*
X004167Y014022D01*
X004164Y014081D02*
X005809Y014081D01*
X005821Y014139D02*
X004152Y014139D01*
X004122Y014198D02*
X005852Y014198D01*
X006294Y014198D02*
X008487Y014198D01*
X008487Y014139D02*
X006329Y014139D01*
X006346Y014081D02*
X008487Y014081D01*
X008487Y014022D02*
X006352Y014022D01*
X006352Y013964D02*
X008487Y013964D01*
X008487Y013905D02*
X006352Y013905D01*
X006352Y013847D02*
X008487Y013847D01*
X008487Y013788D02*
X006352Y013788D01*
X006352Y013730D02*
X008487Y013730D01*
X008487Y013671D02*
X006352Y013671D01*
X006352Y013613D02*
X008487Y013613D01*
X008487Y013554D02*
X006337Y013554D01*
X006306Y013496D02*
X008487Y013496D01*
X008487Y013437D02*
X006256Y013437D01*
X006158Y013379D02*
X008487Y013379D01*
X008487Y013320D02*
X005517Y013320D01*
X005517Y013262D02*
X005592Y013262D01*
X005527Y013203D02*
X005517Y013203D01*
X005465Y013086D02*
X005455Y013086D01*
X005455Y013028D02*
X005396Y013028D01*
X005456Y012969D02*
X005217Y012969D01*
X005167Y012911D02*
X005468Y012911D01*
X005495Y012852D02*
X005167Y012852D01*
X005167Y012794D02*
X005537Y012794D01*
X005622Y012735D02*
X005167Y012735D01*
X005167Y012677D02*
X008113Y012677D01*
X008093Y012735D02*
X005881Y012735D01*
X005966Y012794D02*
X008082Y012794D01*
X008089Y012911D02*
X006038Y012911D01*
X006052Y012969D02*
X008105Y012969D01*
X008130Y013028D02*
X006054Y013028D01*
X006045Y013086D02*
X008169Y013086D01*
X008225Y013145D02*
X006023Y013145D01*
X005984Y013203D02*
X008322Y013203D01*
X008457Y013203D02*
X008487Y013203D01*
X008487Y013145D02*
X008457Y013145D01*
X008457Y013086D02*
X008487Y013086D01*
X008487Y013028D02*
X008457Y013028D01*
X008457Y012969D02*
X008487Y012969D01*
X008487Y012911D02*
X008457Y012911D01*
X008457Y012852D02*
X006011Y012852D01*
X005920Y013262D02*
X008487Y013262D01*
X008457Y012794D02*
X008487Y012794D01*
X008487Y012735D02*
X008457Y012735D01*
X008457Y012677D02*
X008487Y012677D01*
X008487Y012618D02*
X008457Y012618D01*
X008457Y012560D02*
X008487Y012560D01*
X008487Y012501D02*
X008457Y012501D01*
X008457Y012443D02*
X008487Y012443D01*
X008487Y012384D02*
X008157Y012384D01*
X008176Y012366D02*
X008100Y012442D01*
X008000Y012483D01*
X007893Y012483D01*
X007794Y012442D01*
X007718Y012366D01*
X007677Y012267D01*
X006908Y012267D01*
X006927Y012248D02*
X006792Y012383D01*
X006601Y012383D01*
X006467Y012248D01*
X006467Y012058D01*
X006601Y011923D01*
X006792Y011923D01*
X006927Y012058D01*
X006927Y012248D01*
X006927Y012209D02*
X007677Y012209D01*
X007677Y012159D02*
X007718Y012060D01*
X007794Y011984D01*
X007893Y011943D01*
X008000Y011943D01*
X008100Y011984D01*
X008176Y012060D01*
X008217Y012159D01*
X008217Y012267D01*
X008176Y012366D01*
X008192Y012326D02*
X008487Y012326D01*
X008487Y012267D02*
X008217Y012267D01*
X008217Y012209D02*
X008487Y012209D01*
X008298Y012150D02*
X008213Y012150D01*
X008229Y012092D02*
X008189Y012092D01*
X008174Y012033D02*
X008149Y012033D01*
X008150Y011975D02*
X008077Y011975D01*
X008126Y011916D02*
X005869Y011916D01*
X005927Y011858D02*
X005792Y011993D01*
X005601Y011993D01*
X005467Y011858D01*
X005467Y011668D01*
X005601Y011533D01*
X005792Y011533D01*
X005927Y011668D01*
X005927Y011858D01*
X008122Y011858D01*
X008122Y011799D02*
X005927Y011799D01*
X005927Y011741D02*
X008130Y011741D01*
X008154Y011682D02*
X005927Y011682D01*
X005882Y011624D02*
X008180Y011624D01*
X008238Y011565D02*
X005824Y011565D01*
X005569Y011565D02*
X005167Y011565D01*
X005167Y011507D02*
X008321Y011507D01*
X008487Y011448D02*
X005167Y011448D01*
X005167Y011390D02*
X008487Y011390D01*
X008487Y011331D02*
X005167Y011331D01*
X005167Y011273D02*
X006631Y011273D01*
X006497Y011138D01*
X006497Y011098D01*
X006392Y011203D01*
X006201Y011203D01*
X006067Y011068D01*
X006067Y011018D01*
X005952Y011133D01*
X005761Y011133D01*
X005627Y010998D01*
X005627Y010808D01*
X005761Y010673D01*
X005952Y010673D01*
X006087Y010808D01*
X006087Y010858D01*
X006201Y010743D01*
X006392Y010743D01*
X006527Y010878D01*
X006527Y010918D01*
X006631Y010813D01*
X006822Y010813D01*
X006957Y010948D01*
X006957Y011138D01*
X006822Y011273D01*
X006631Y011273D01*
X006572Y011214D02*
X005167Y011214D01*
X005167Y011156D02*
X006154Y011156D01*
X006095Y011097D02*
X005988Y011097D01*
X006046Y011039D02*
X006067Y011039D01*
X006083Y010805D02*
X006140Y010805D01*
X006198Y010746D02*
X006025Y010746D01*
X005966Y010688D02*
X007406Y010688D01*
X007387Y010668D02*
X007387Y010478D01*
X007521Y010343D01*
X007712Y010343D01*
X007847Y010478D01*
X007847Y010668D01*
X007712Y010803D01*
X007521Y010803D01*
X007387Y010668D01*
X007387Y010629D02*
X006346Y010629D01*
X006332Y010643D02*
X006141Y010643D01*
X006007Y010508D01*
X006007Y010318D01*
X006141Y010183D01*
X006332Y010183D01*
X006467Y010318D01*
X006467Y010508D01*
X006332Y010643D01*
X006404Y010571D02*
X007387Y010571D01*
X007387Y010512D02*
X006463Y010512D01*
X006467Y010454D02*
X007411Y010454D01*
X007469Y010395D02*
X006467Y010395D01*
X006467Y010337D02*
X008487Y010337D01*
X008487Y010395D02*
X007764Y010395D01*
X007822Y010454D02*
X008487Y010454D01*
X008308Y010512D02*
X007847Y010512D01*
X007847Y010571D02*
X008233Y010571D01*
X008176Y010629D02*
X007847Y010629D01*
X007827Y010688D02*
X008152Y010688D01*
X008128Y010746D02*
X007769Y010746D01*
X007464Y010746D02*
X006395Y010746D01*
X006453Y010805D02*
X008122Y010805D01*
X008122Y010863D02*
X006872Y010863D01*
X006930Y010922D02*
X008128Y010922D01*
X008153Y010980D02*
X006957Y010980D01*
X006957Y011039D02*
X008177Y011039D01*
X008235Y011097D02*
X006957Y011097D01*
X006939Y011156D02*
X008312Y011156D01*
X008487Y011214D02*
X006881Y011214D01*
X006822Y011273D02*
X008487Y011273D01*
X007817Y011975D02*
X006843Y011975D01*
X006902Y012033D02*
X007745Y012033D01*
X007705Y012092D02*
X006927Y012092D01*
X006927Y012150D02*
X007680Y012150D01*
X007677Y012159D02*
X007677Y012267D01*
X007701Y012326D02*
X006849Y012326D01*
X006544Y012326D02*
X005167Y012326D01*
X005167Y012384D02*
X007736Y012384D01*
X007795Y012443D02*
X005167Y012443D01*
X005167Y012501D02*
X008254Y012501D01*
X008187Y012560D02*
X005167Y012560D01*
X005167Y012618D02*
X008143Y012618D01*
X008098Y012443D02*
X008374Y012443D01*
X006550Y011975D02*
X005810Y011975D01*
X005583Y011975D02*
X005167Y011975D01*
X005167Y012033D02*
X006491Y012033D01*
X006467Y012092D02*
X005167Y012092D01*
X005167Y012150D02*
X006467Y012150D01*
X006467Y012209D02*
X005167Y012209D01*
X005167Y012267D02*
X006485Y012267D01*
X005524Y011916D02*
X005167Y011916D01*
X005167Y011858D02*
X005467Y011858D01*
X005467Y011799D02*
X005167Y011799D01*
X005167Y011741D02*
X005467Y011741D01*
X005467Y011682D02*
X005167Y011682D01*
X005167Y011624D02*
X005511Y011624D01*
X005725Y011097D02*
X005167Y011097D01*
X005167Y011039D02*
X005667Y011039D01*
X005627Y010980D02*
X005167Y010980D01*
X005163Y010922D02*
X005627Y010922D01*
X005627Y010863D02*
X005105Y010863D01*
X005046Y010805D02*
X005630Y010805D01*
X005688Y010746D02*
X004988Y010746D01*
X004929Y010688D02*
X005747Y010688D01*
X006010Y010512D02*
X004754Y010512D01*
X004812Y010571D02*
X006069Y010571D01*
X006127Y010629D02*
X004871Y010629D01*
X004695Y010454D02*
X006007Y010454D01*
X006007Y010395D02*
X003884Y010395D01*
X003589Y010395D02*
X002524Y010395D01*
X002472Y010343D02*
X002607Y010478D01*
X002607Y010668D01*
X002472Y010803D01*
X002281Y010803D01*
X002147Y010668D01*
X002147Y010478D01*
X002281Y010343D01*
X002472Y010343D01*
X002582Y010454D02*
X003531Y010454D01*
X003507Y010512D02*
X002607Y010512D01*
X002607Y010571D02*
X003507Y010571D01*
X003507Y010629D02*
X002607Y010629D01*
X002587Y010688D02*
X003526Y010688D01*
X003584Y010746D02*
X002529Y010746D01*
X002521Y010833D02*
X002712Y010833D01*
X002847Y010968D01*
X002847Y011158D01*
X002712Y011293D01*
X002521Y011293D01*
X002387Y011158D01*
X002387Y010968D01*
X002521Y010833D01*
X002491Y010863D02*
X001852Y010863D01*
X001852Y010906D02*
X001796Y011040D01*
X001693Y011143D01*
X001559Y011198D01*
X001487Y011198D01*
X001487Y011468D01*
X001559Y011468D01*
X001693Y011524D01*
X001796Y011626D01*
X001852Y011760D01*
X001852Y011906D01*
X001796Y012040D01*
X001693Y012143D01*
X001559Y012198D01*
X001487Y012198D01*
X001487Y012468D01*
X001559Y012468D01*
X001693Y012524D01*
X001796Y012626D01*
X001852Y012760D01*
X001852Y012906D01*
X001796Y013040D01*
X001693Y013143D01*
X001559Y013198D01*
X001487Y013198D01*
X001487Y014223D01*
X003694Y014223D01*
X003690Y014220D01*
X003690Y014216D01*
X003668Y014188D01*
X003664Y014187D01*
X003660Y014178D01*
X003655Y014171D01*
X003655Y014168D01*
X003640Y014135D01*
X003637Y014133D01*
X003635Y014125D01*
X003631Y014116D01*
X003632Y014113D01*
X003624Y014078D01*
X003622Y014075D01*
X003622Y014066D01*
X003620Y014057D01*
X003622Y014054D01*
X003622Y013617D01*
X003620Y013614D01*
X003622Y013605D01*
X003622Y013596D01*
X003624Y013593D01*
X003631Y013563D01*
X003630Y013560D01*
X003634Y013551D01*
X003636Y013542D01*
X003638Y013540D01*
X003651Y013513D01*
X003650Y013510D01*
X003656Y013502D01*
X003659Y013493D01*
X003662Y013492D01*
X003680Y013467D01*
X003680Y013464D01*
X003687Y013457D01*
X003692Y013450D01*
X003696Y013449D01*
X003717Y013428D01*
X003718Y013425D01*
X003726Y013420D01*
X003733Y013413D01*
X003736Y013413D01*
X003762Y013397D01*
X003763Y013394D01*
X003772Y013391D01*
X003780Y013386D01*
X003783Y013386D01*
X003811Y013376D01*
X003813Y013373D01*
X003823Y013371D01*
X003831Y013368D01*
X003834Y013369D01*
X003864Y013364D01*
X003867Y013362D01*
X003876Y013362D01*
X003885Y013360D01*
X003888Y013362D01*
X003917Y013363D01*
X003919Y013362D01*
X003929Y013363D01*
X003940Y013363D01*
X003941Y013365D01*
X003965Y013368D01*
X003968Y013367D01*
X003977Y013370D01*
X003986Y013371D01*
X003988Y013374D01*
X004012Y013382D01*
X004059Y013263D02*
X004051Y013257D01*
X004043Y013253D01*
X004042Y013250D01*
X004015Y013227D01*
X004012Y013227D01*
X004006Y013220D01*
X003998Y013214D01*
X003998Y013210D01*
X003976Y013183D01*
X003972Y013182D01*
X003968Y013174D01*
X003962Y013167D01*
X003962Y013163D01*
X003946Y013132D01*
X003943Y013131D01*
X003940Y013122D01*
X003936Y013113D01*
X003937Y013110D01*
X003926Y013077D01*
X003924Y013075D01*
X003923Y013065D01*
X003920Y013056D01*
X003922Y013053D01*
X003918Y013019D01*
X003916Y013016D01*
X003917Y013006D01*
X003916Y012997D01*
X003918Y012994D01*
X003921Y012959D01*
X003920Y012957D01*
X003922Y012947D01*
X003923Y012938D01*
X003926Y012936D01*
X003936Y012902D01*
X003935Y012899D01*
X003939Y012890D01*
X003942Y012881D01*
X003945Y012880D01*
X003961Y012848D01*
X003961Y012845D01*
X003967Y012838D01*
X003971Y012829D01*
X003974Y012828D01*
X003997Y012801D01*
X003997Y012798D01*
X004004Y012792D01*
X004010Y012784D01*
X004014Y012784D01*
X004041Y012762D01*
X004042Y012758D01*
X004050Y012754D01*
X004058Y012748D01*
X004061Y012748D01*
X004092Y012732D01*
X004094Y012729D01*
X004103Y012726D01*
X004111Y012722D01*
X004115Y012723D01*
X004149Y012713D01*
X004151Y012710D01*
X004160Y012710D01*
X004169Y012707D01*
X004172Y012709D01*
X004207Y012706D01*
X004210Y012703D01*
X004219Y012705D01*
X004229Y012704D01*
X004231Y012706D01*
X004266Y012710D01*
X004269Y012708D01*
X004278Y012711D01*
X004287Y012712D01*
X004289Y012715D01*
X004323Y012725D01*
X004326Y012724D01*
X004334Y012729D01*
X004343Y012731D01*
X004345Y012734D01*
X004375Y012751D01*
X004378Y012751D01*
X004386Y012757D01*
X004394Y012761D01*
X004395Y012764D01*
X004422Y012786D01*
X004425Y012787D01*
X004431Y012794D01*
X004439Y012800D01*
X004439Y012803D01*
X004461Y012830D01*
X004464Y012831D01*
X004469Y012839D01*
X004475Y012847D01*
X004474Y012850D01*
X004491Y012881D01*
X004494Y012882D01*
X004497Y012891D01*
X004501Y012900D01*
X004500Y012903D01*
X004511Y012936D01*
X004513Y012938D01*
X004514Y012947D01*
X004517Y012956D01*
X004516Y012959D01*
X004519Y012994D01*
X004522Y012996D01*
X004521Y013006D01*
X004522Y013015D01*
X004520Y013018D01*
X004517Y013053D01*
X004518Y013056D01*
X004516Y013065D01*
X004515Y013074D01*
X004512Y013076D01*
X004503Y013110D01*
X004504Y013113D01*
X004499Y013121D01*
X004497Y013130D01*
X004494Y013132D01*
X004478Y013163D01*
X004478Y013166D01*
X004472Y013173D01*
X004468Y013182D01*
X004465Y013183D01*
X004443Y013210D01*
X004442Y013213D01*
X004435Y013219D01*
X004429Y013227D01*
X004426Y013227D01*
X004399Y013249D01*
X004398Y013252D01*
X004390Y013257D01*
X004382Y013263D01*
X004379Y013263D01*
X004348Y013279D01*
X004347Y013282D01*
X004338Y013285D01*
X004330Y013289D01*
X004326Y013289D01*
X004293Y013299D01*
X004291Y013301D01*
X004282Y013302D01*
X004273Y013305D01*
X004270Y013303D01*
X004237Y013307D01*
X004235Y013308D01*
X004230Y013308D01*
X004228Y013309D01*
X004221Y013308D01*
X004213Y013309D01*
X004212Y013308D01*
X004207Y013308D01*
X004205Y013307D01*
X004172Y013303D01*
X004169Y013305D01*
X004160Y013302D01*
X004151Y013301D01*
X004149Y013299D01*
X004115Y013289D01*
X004112Y013290D01*
X004103Y013285D01*
X004094Y013282D01*
X004093Y013279D01*
X004062Y013263D01*
X004059Y013263D01*
X004057Y013262D02*
X001487Y013262D01*
X001487Y013320D02*
X004667Y013320D01*
X004667Y013262D02*
X004384Y013262D01*
X004448Y013203D02*
X004667Y013203D01*
X004670Y013145D02*
X004487Y013145D01*
X004510Y013086D02*
X004687Y013086D01*
X004687Y013028D02*
X004519Y013028D01*
X004517Y012969D02*
X004687Y012969D01*
X004687Y012911D02*
X004503Y012911D01*
X004475Y012852D02*
X004687Y012852D01*
X004687Y012794D02*
X004431Y012794D01*
X004346Y012735D02*
X004687Y012735D01*
X004687Y012677D02*
X001817Y012677D01*
X001841Y012735D02*
X004086Y012735D01*
X004002Y012794D02*
X001852Y012794D01*
X001852Y012852D02*
X003959Y012852D01*
X003933Y012911D02*
X001850Y012911D01*
X001825Y012969D02*
X003920Y012969D01*
X003919Y013028D02*
X001801Y013028D01*
X001750Y013086D02*
X003929Y013086D01*
X003952Y013145D02*
X001688Y013145D01*
X001487Y013203D02*
X003992Y013203D01*
X003803Y013379D02*
X001487Y013379D01*
X001487Y013437D02*
X003708Y013437D01*
X003658Y013496D02*
X001487Y013496D01*
X001487Y013554D02*
X003632Y013554D01*
X003620Y013613D02*
X001487Y013613D01*
X001487Y013671D02*
X003622Y013671D01*
X003622Y013730D02*
X001487Y013730D01*
X001487Y013788D02*
X003622Y013788D01*
X003622Y013847D02*
X001487Y013847D01*
X001487Y013905D02*
X003622Y013905D01*
X003622Y013964D02*
X001487Y013964D01*
X001487Y014022D02*
X003622Y014022D01*
X003625Y014081D02*
X001487Y014081D01*
X001487Y014139D02*
X003641Y014139D01*
X003675Y014198D02*
X001487Y014198D01*
X001788Y012618D02*
X003456Y012618D01*
X003501Y012663D02*
X003367Y012528D01*
X003367Y012338D01*
X003501Y012203D01*
X003692Y012203D01*
X003827Y012338D01*
X003827Y012528D01*
X003692Y012663D01*
X003501Y012663D01*
X003398Y012560D02*
X001729Y012560D01*
X001639Y012501D02*
X003367Y012501D01*
X003367Y012443D02*
X001487Y012443D01*
X001487Y012384D02*
X003367Y012384D01*
X003379Y012326D02*
X001487Y012326D01*
X001487Y012267D02*
X003437Y012267D01*
X003496Y012209D02*
X001487Y012209D01*
X001675Y012150D02*
X004687Y012150D01*
X004687Y012092D02*
X001744Y012092D01*
X001799Y012033D02*
X004687Y012033D01*
X004687Y011975D02*
X001823Y011975D01*
X001847Y011916D02*
X004687Y011916D01*
X004687Y011858D02*
X001852Y011858D01*
X001852Y011799D02*
X004687Y011799D01*
X004687Y011741D02*
X001843Y011741D01*
X001819Y011682D02*
X004687Y011682D01*
X004687Y011624D02*
X001793Y011624D01*
X001735Y011565D02*
X004687Y011565D01*
X004687Y011507D02*
X001652Y011507D01*
X001487Y011448D02*
X004687Y011448D01*
X004687Y011390D02*
X001487Y011390D01*
X001487Y011331D02*
X004687Y011331D01*
X004687Y011273D02*
X002732Y011273D01*
X002791Y011214D02*
X004687Y011214D01*
X004631Y011156D02*
X002847Y011156D01*
X002847Y011097D02*
X004573Y011097D01*
X004514Y011039D02*
X004276Y011039D01*
X003997Y011039D02*
X002847Y011039D01*
X002847Y010980D02*
X003938Y010980D01*
X003907Y010922D02*
X002800Y010922D01*
X002742Y010863D02*
X003907Y010863D01*
X003907Y010805D02*
X001852Y010805D01*
X001852Y010760D02*
X001852Y010906D01*
X001845Y010922D02*
X002433Y010922D01*
X002387Y010980D02*
X001821Y010980D01*
X001797Y011039D02*
X002387Y011039D01*
X002387Y011097D02*
X001739Y011097D01*
X001662Y011156D02*
X002387Y011156D01*
X002442Y011214D02*
X001487Y011214D01*
X001487Y011273D02*
X002501Y011273D01*
X002224Y010746D02*
X001846Y010746D01*
X001852Y010760D02*
X001796Y010626D01*
X001693Y010524D01*
X001559Y010468D01*
X001487Y010468D01*
X001487Y010198D01*
X001559Y010198D01*
X001693Y010143D01*
X001796Y010040D01*
X001852Y009906D01*
X001852Y009760D01*
X001796Y009626D01*
X001693Y009524D01*
X001559Y009468D01*
X001487Y009468D01*
X001487Y009198D01*
X001559Y009198D01*
X001693Y009143D01*
X001796Y009040D01*
X001852Y008906D01*
X001852Y008760D01*
X001796Y008626D01*
X001693Y008524D01*
X001559Y008468D01*
X001487Y008468D01*
X001487Y008198D01*
X001559Y008198D01*
X001693Y008143D01*
X001796Y008040D01*
X001852Y007906D01*
X001852Y007760D01*
X001825Y007697D01*
X001891Y007763D01*
X001852Y007763D01*
X001891Y007763D02*
X002082Y007763D01*
X002217Y007628D01*
X002217Y007515D01*
X002237Y007495D01*
X002237Y007155D01*
X004147Y005245D01*
X004147Y003778D01*
X004227Y003698D01*
X004227Y003508D01*
X004092Y003373D01*
X003901Y003373D01*
X003767Y003508D01*
X003767Y003698D01*
X003847Y003778D01*
X003847Y005121D01*
X002503Y006465D01*
X002462Y006424D01*
X002272Y006424D01*
X002138Y006558D01*
X002138Y006748D01*
X002179Y006789D01*
X002025Y006943D01*
X001937Y007031D01*
X001937Y007303D01*
X001891Y007303D01*
X001757Y007438D01*
X001757Y007587D01*
X001693Y007524D01*
X001559Y007468D01*
X001487Y007468D01*
X001487Y007198D01*
X001559Y007198D01*
X001693Y007143D01*
X001796Y007040D01*
X001852Y006906D01*
X001852Y006760D01*
X001796Y006626D01*
X001693Y006524D01*
X001559Y006468D01*
X001487Y006468D01*
X001487Y006198D01*
X001559Y006198D01*
X001693Y006143D01*
X001796Y006040D01*
X001852Y005906D01*
X001852Y005760D01*
X001796Y005626D01*
X001693Y005524D01*
X001559Y005468D01*
X001487Y005468D01*
X001487Y005198D01*
X001559Y005198D01*
X001693Y005143D01*
X001796Y005040D01*
X001852Y004906D01*
X001852Y004760D01*
X001796Y004626D01*
X001693Y004524D01*
X001559Y004468D01*
X001487Y004468D01*
X001487Y004198D01*
X001559Y004198D01*
X001693Y004143D01*
X001796Y004040D01*
X001838Y003939D01*
X001961Y004063D01*
X002152Y004063D01*
X002232Y003983D01*
X002535Y003983D01*
X003337Y004785D01*
X003337Y004898D01*
X003471Y005033D01*
X003662Y005033D01*
X003797Y004898D01*
X003797Y004708D01*
X003662Y004573D01*
X003549Y004573D01*
X002747Y003771D01*
X002659Y003683D01*
X002232Y003683D01*
X002152Y003603D01*
X001961Y003603D01*
X001838Y003727D01*
X001796Y003626D01*
X001693Y003524D01*
X001559Y003468D01*
X001487Y003468D01*
X001487Y003198D01*
X001559Y003198D01*
X001693Y003143D01*
X001796Y003040D01*
X001852Y002906D01*
X001852Y002760D01*
X001796Y002626D01*
X001693Y002524D01*
X001559Y002468D01*
X001487Y002468D01*
X001487Y002198D01*
X001559Y002198D01*
X001693Y002143D01*
X001796Y002040D01*
X001852Y001906D01*
X001852Y001760D01*
X001796Y001626D01*
X001693Y001524D01*
X001559Y001468D01*
X001487Y001468D01*
X001487Y001445D02*
X001954Y001445D01*
X001898Y001386D02*
X001487Y001386D01*
X001487Y001328D02*
X001898Y001328D01*
X001898Y001269D02*
X001487Y001269D01*
X001487Y001211D02*
X001898Y001211D01*
X002013Y001503D02*
X001644Y001503D01*
X001731Y001562D02*
X008242Y001562D01*
X008183Y001620D02*
X001790Y001620D01*
X001818Y001679D02*
X008156Y001679D01*
X008131Y001737D02*
X001842Y001737D01*
X001852Y001796D02*
X008122Y001796D01*
X008122Y001854D02*
X005962Y001854D01*
X006096Y001988D01*
X006096Y002178D01*
X005962Y002312D01*
X005772Y002312D01*
X005638Y002178D01*
X005638Y001988D01*
X005772Y001854D01*
X005962Y001854D01*
X006020Y001913D02*
X008125Y001913D01*
X008149Y001971D02*
X006079Y001971D01*
X006096Y002030D02*
X008173Y002030D01*
X008225Y002088D02*
X006096Y002088D01*
X006096Y002147D02*
X008290Y002147D01*
X008487Y002205D02*
X006069Y002205D01*
X006010Y002264D02*
X008487Y002264D01*
X008487Y002322D02*
X005232Y002322D01*
X005042Y002322D01*
X004908Y002188D01*
X004908Y001998D01*
X005042Y001864D01*
X005232Y001864D01*
X005366Y001998D01*
X005366Y002188D01*
X005232Y002322D01*
X005290Y002264D02*
X005723Y002264D01*
X005665Y002205D02*
X005349Y002205D01*
X005366Y002147D02*
X005638Y002147D01*
X005638Y002088D02*
X005366Y002088D01*
X005366Y002030D02*
X005638Y002030D01*
X005655Y001971D02*
X005339Y001971D01*
X005280Y001913D02*
X005713Y001913D01*
X005772Y001854D02*
X001852Y001854D01*
X001849Y001913D02*
X004993Y001913D01*
X004935Y001971D02*
X001825Y001971D01*
X001800Y002030D02*
X004908Y002030D01*
X004908Y002088D02*
X001748Y002088D01*
X001684Y002147D02*
X004908Y002147D01*
X004925Y002205D02*
X001487Y002205D01*
X001487Y002264D02*
X004983Y002264D01*
X005042Y002322D02*
X001487Y002322D01*
X001487Y002381D02*
X008487Y002381D01*
X008487Y002439D02*
X001487Y002439D01*
X001631Y002498D02*
X008343Y002498D01*
X008247Y002556D02*
X001726Y002556D01*
X001784Y002615D02*
X008189Y002615D01*
X008158Y002673D02*
X007361Y002673D01*
X007312Y002624D02*
X007446Y002758D01*
X007446Y002948D01*
X007312Y003082D01*
X007122Y003082D01*
X006988Y002948D01*
X006988Y002758D01*
X007122Y002624D01*
X007312Y002624D01*
X007419Y002732D02*
X008134Y002732D01*
X008122Y002790D02*
X007446Y002790D01*
X007446Y002849D02*
X008122Y002849D01*
X008122Y002907D02*
X007446Y002907D01*
X007428Y002966D02*
X008146Y002966D01*
X007970Y003024D02*
X007370Y003024D01*
X007064Y003024D02*
X002800Y003024D01*
X002806Y003018D02*
X002672Y003152D01*
X002482Y003152D01*
X002348Y003018D01*
X002348Y002828D01*
X002482Y002694D01*
X002672Y002694D01*
X002806Y002828D01*
X002806Y003018D01*
X002806Y002966D02*
X007005Y002966D01*
X006988Y002907D02*
X002806Y002907D01*
X002806Y002849D02*
X006988Y002849D01*
X006988Y002790D02*
X002768Y002790D01*
X002709Y002732D02*
X007014Y002732D01*
X007073Y002673D02*
X001815Y002673D01*
X001840Y002732D02*
X002444Y002732D01*
X002386Y002790D02*
X001852Y002790D01*
X001852Y002849D02*
X002348Y002849D01*
X002348Y002907D02*
X001851Y002907D01*
X001827Y002966D02*
X002348Y002966D01*
X002354Y003024D02*
X001803Y003024D01*
X001753Y003083D02*
X002412Y003083D01*
X002471Y003141D02*
X001695Y003141D01*
X001487Y003200D02*
X007867Y003200D01*
X007867Y003258D02*
X001487Y003258D01*
X001487Y003317D02*
X007867Y003317D01*
X007923Y003375D02*
X004094Y003375D01*
X004152Y003434D02*
X006391Y003434D01*
X006431Y003393D02*
X006622Y003393D01*
X006757Y003528D01*
X006757Y003718D01*
X006622Y003853D01*
X006457Y003853D01*
X006457Y003958D01*
X006377Y004038D01*
X006377Y004175D01*
X006289Y004263D01*
X006049Y004503D01*
X005797Y004503D01*
X005597Y004697D01*
X005597Y007111D01*
X007057Y008571D01*
X007057Y008638D01*
X007137Y008718D01*
X007137Y008908D01*
X007002Y009043D01*
X006811Y009043D01*
X006677Y008908D01*
X006677Y008718D01*
X006728Y008667D01*
X005385Y007323D01*
X005297Y007235D01*
X005297Y004694D01*
X005296Y004693D01*
X005297Y004632D01*
X005297Y004571D01*
X005298Y004570D01*
X005298Y004568D01*
X005341Y004526D01*
X005385Y004483D01*
X005386Y004483D01*
X005632Y004246D01*
X005675Y004203D01*
X005676Y004203D01*
X005677Y004202D01*
X005738Y004203D01*
X005925Y004203D01*
X006077Y004051D01*
X006077Y004038D01*
X006052Y004013D01*
X005952Y004113D01*
X005761Y004113D01*
X005687Y004038D01*
X005572Y004153D01*
X005381Y004153D01*
X005247Y004018D01*
X005247Y003828D01*
X005381Y003693D01*
X005572Y003693D01*
X005647Y003768D01*
X005761Y003653D01*
X005952Y003653D01*
X006032Y003733D01*
X006131Y003633D01*
X006297Y003633D01*
X006297Y003528D01*
X006431Y003393D01*
X006332Y003492D02*
X004211Y003492D01*
X004227Y003551D02*
X006297Y003551D01*
X006297Y003609D02*
X004227Y003609D01*
X004227Y003668D02*
X005747Y003668D01*
X005688Y003726D02*
X005605Y003726D01*
X005348Y003726D02*
X004199Y003726D01*
X004147Y003785D02*
X005290Y003785D01*
X005247Y003843D02*
X004147Y003843D01*
X004147Y003902D02*
X005247Y003902D01*
X005247Y003960D02*
X004147Y003960D01*
X004147Y004019D02*
X005247Y004019D01*
X005305Y004077D02*
X004147Y004077D01*
X004147Y004136D02*
X005364Y004136D01*
X005589Y004136D02*
X005992Y004136D01*
X005988Y004077D02*
X006051Y004077D01*
X006046Y004019D02*
X006057Y004019D01*
X005934Y004194D02*
X004147Y004194D01*
X004147Y004253D02*
X005625Y004253D01*
X005564Y004311D02*
X004147Y004311D01*
X004147Y004370D02*
X005504Y004370D01*
X005443Y004428D02*
X004147Y004428D01*
X004147Y004487D02*
X005381Y004487D01*
X005322Y004545D02*
X004594Y004545D01*
X004592Y004543D02*
X004727Y004678D01*
X004727Y004868D01*
X004592Y005003D01*
X004401Y005003D01*
X004267Y004868D01*
X004267Y004678D01*
X004401Y004543D01*
X004592Y004543D01*
X004652Y004604D02*
X004852Y004604D01*
X004902Y004554D02*
X005092Y004554D01*
X005226Y004688D01*
X005226Y004878D01*
X005092Y005012D01*
X004902Y005012D01*
X004768Y004878D01*
X004768Y004688D01*
X004902Y004554D01*
X004794Y004662D02*
X004711Y004662D01*
X004727Y004721D02*
X004768Y004721D01*
X004768Y004779D02*
X004727Y004779D01*
X004727Y004838D02*
X004768Y004838D01*
X004786Y004896D02*
X004699Y004896D01*
X004640Y004955D02*
X004844Y004955D01*
X005149Y004955D02*
X005297Y004955D01*
X005297Y005013D02*
X004147Y005013D01*
X004147Y004955D02*
X004353Y004955D01*
X004294Y004896D02*
X004147Y004896D01*
X004147Y004838D02*
X004267Y004838D01*
X004267Y004779D02*
X004147Y004779D01*
X004147Y004721D02*
X004267Y004721D01*
X004282Y004662D02*
X004147Y004662D01*
X004147Y004604D02*
X004341Y004604D01*
X004399Y004545D02*
X004147Y004545D01*
X003847Y004545D02*
X003521Y004545D01*
X003462Y004487D02*
X003847Y004487D01*
X003847Y004428D02*
X003676Y004428D01*
X003672Y004432D02*
X003482Y004432D01*
X003348Y004298D01*
X003348Y004108D01*
X003482Y003974D01*
X003672Y003974D01*
X003806Y004108D01*
X003806Y004298D01*
X003672Y004432D01*
X003734Y004370D02*
X003847Y004370D01*
X003847Y004311D02*
X003793Y004311D01*
X003806Y004253D02*
X003847Y004253D01*
X003847Y004194D02*
X003806Y004194D01*
X003806Y004136D02*
X003847Y004136D01*
X003847Y004077D02*
X003775Y004077D01*
X003716Y004019D02*
X003847Y004019D01*
X003847Y003960D02*
X002936Y003960D01*
X002994Y004019D02*
X003437Y004019D01*
X003379Y004077D02*
X003053Y004077D01*
X003111Y004136D02*
X003348Y004136D01*
X003348Y004194D02*
X003170Y004194D01*
X003228Y004253D02*
X003348Y004253D01*
X003361Y004311D02*
X003287Y004311D01*
X003345Y004370D02*
X003419Y004370D01*
X003404Y004428D02*
X003478Y004428D01*
X003692Y004604D02*
X003847Y004604D01*
X003847Y004662D02*
X003751Y004662D01*
X003797Y004721D02*
X003847Y004721D01*
X003847Y004779D02*
X003797Y004779D01*
X003797Y004838D02*
X003847Y004838D01*
X003847Y004896D02*
X003797Y004896D01*
X003847Y004955D02*
X003740Y004955D01*
X003682Y005013D02*
X003847Y005013D01*
X003847Y005072D02*
X002797Y005072D01*
X002797Y005058D02*
X002662Y004923D01*
X002471Y004923D01*
X002337Y005058D01*
X002337Y005248D01*
X002471Y005383D01*
X002662Y005383D01*
X002797Y005248D01*
X002797Y005058D01*
X002752Y005013D02*
X003451Y005013D01*
X003393Y004955D02*
X002693Y004955D01*
X002797Y005130D02*
X003838Y005130D01*
X003779Y005189D02*
X002797Y005189D01*
X002797Y005247D02*
X003721Y005247D01*
X003662Y005306D02*
X002739Y005306D01*
X002681Y005364D02*
X003604Y005364D01*
X003545Y005423D02*
X001487Y005423D01*
X001487Y005364D02*
X002452Y005364D01*
X002394Y005306D02*
X001487Y005306D01*
X001487Y005247D02*
X002337Y005247D01*
X002337Y005189D02*
X001582Y005189D01*
X001706Y005130D02*
X002337Y005130D01*
X002337Y005072D02*
X001764Y005072D01*
X001807Y005013D02*
X002381Y005013D01*
X002440Y004955D02*
X001831Y004955D01*
X001852Y004896D02*
X003337Y004896D01*
X003337Y004838D02*
X001852Y004838D01*
X001852Y004779D02*
X003331Y004779D01*
X003272Y004721D02*
X001835Y004721D01*
X001811Y004662D02*
X003214Y004662D01*
X003155Y004604D02*
X001773Y004604D01*
X001715Y004545D02*
X003097Y004545D01*
X003038Y004487D02*
X001604Y004487D01*
X001487Y004428D02*
X002980Y004428D01*
X002921Y004370D02*
X001487Y004370D01*
X001487Y004311D02*
X002863Y004311D01*
X002804Y004253D02*
X001487Y004253D01*
X001569Y004194D02*
X002746Y004194D01*
X002687Y004136D02*
X001700Y004136D01*
X001759Y004077D02*
X002629Y004077D01*
X002570Y004019D02*
X002196Y004019D01*
X001917Y004019D02*
X001805Y004019D01*
X001829Y003960D02*
X001858Y003960D01*
X001837Y003726D02*
X001838Y003726D01*
X001813Y003668D02*
X001897Y003668D01*
X001955Y003609D02*
X001779Y003609D01*
X001720Y003551D02*
X003767Y003551D01*
X003767Y003609D02*
X002158Y003609D01*
X002216Y003668D02*
X003767Y003668D01*
X003794Y003726D02*
X002702Y003726D01*
X002760Y003785D02*
X003847Y003785D01*
X003847Y003843D02*
X002819Y003843D01*
X002877Y003902D02*
X003847Y003902D01*
X003782Y003492D02*
X001617Y003492D01*
X001487Y003434D02*
X003841Y003434D01*
X003899Y003375D02*
X001487Y003375D01*
X002683Y003141D02*
X007867Y003141D01*
X007912Y003083D02*
X002741Y003083D01*
X002241Y001503D02*
X003253Y001503D01*
X003194Y001445D02*
X002299Y001445D01*
X002356Y001386D02*
X003138Y001386D01*
X003138Y001328D02*
X002356Y001328D01*
X002356Y001269D02*
X003138Y001269D01*
X003138Y001211D02*
X002356Y001211D01*
X003481Y001503D02*
X004073Y001503D01*
X004014Y001445D02*
X003539Y001445D01*
X003596Y001386D02*
X003958Y001386D01*
X003958Y001328D02*
X003596Y001328D01*
X003596Y001269D02*
X003958Y001269D01*
X003958Y001211D02*
X003596Y001211D01*
X004301Y001503D02*
X005033Y001503D01*
X004974Y001445D02*
X004359Y001445D01*
X004416Y001386D02*
X004918Y001386D01*
X004918Y001328D02*
X004416Y001328D01*
X004416Y001269D02*
X004918Y001269D01*
X004918Y001211D02*
X004416Y001211D01*
X005261Y001503D02*
X006043Y001503D01*
X005984Y001445D02*
X005319Y001445D01*
X005376Y001386D02*
X005928Y001386D01*
X005928Y001328D02*
X005376Y001328D01*
X005376Y001269D02*
X005928Y001269D01*
X005928Y001211D02*
X005376Y001211D01*
X006271Y001503D02*
X006843Y001503D01*
X006784Y001445D02*
X006329Y001445D01*
X006386Y001386D02*
X006728Y001386D01*
X006728Y001328D02*
X006386Y001328D01*
X006386Y001269D02*
X006728Y001269D01*
X006728Y001211D02*
X006386Y001211D01*
X007071Y001503D02*
X008330Y001503D01*
X008487Y001445D02*
X007129Y001445D01*
X007186Y001386D02*
X008487Y001386D01*
X008487Y001328D02*
X007186Y001328D01*
X007186Y001269D02*
X008487Y001269D01*
X008487Y001211D02*
X007186Y001211D01*
X008327Y003200D02*
X008487Y003200D01*
X008487Y003258D02*
X008327Y003258D01*
X008327Y003317D02*
X008487Y003317D01*
X008487Y003375D02*
X008270Y003375D01*
X008211Y003434D02*
X008487Y003434D01*
X008356Y003492D02*
X006721Y003492D01*
X006757Y003551D02*
X008253Y003551D01*
X008194Y003609D02*
X006757Y003609D01*
X006757Y003668D02*
X007758Y003668D01*
X007700Y003726D02*
X006749Y003726D01*
X006690Y003785D02*
X007641Y003785D01*
X007628Y003843D02*
X006632Y003843D01*
X006457Y003902D02*
X007628Y003902D01*
X007628Y003960D02*
X006455Y003960D01*
X006396Y004019D02*
X007658Y004019D01*
X007717Y004077D02*
X006377Y004077D01*
X006377Y004136D02*
X007867Y004136D01*
X007867Y004194D02*
X006358Y004194D01*
X006391Y004203D02*
X006582Y004203D01*
X006717Y004338D01*
X006717Y004528D01*
X006582Y004663D01*
X006391Y004663D01*
X006257Y004528D01*
X006257Y004338D01*
X006391Y004203D01*
X006342Y004253D02*
X006299Y004253D01*
X006283Y004311D02*
X006241Y004311D01*
X006257Y004370D02*
X006182Y004370D01*
X006124Y004428D02*
X006257Y004428D01*
X006257Y004487D02*
X006065Y004487D01*
X006042Y004564D02*
X005852Y004564D01*
X005718Y004698D01*
X005718Y004888D01*
X005852Y005022D01*
X006042Y005022D01*
X006176Y004888D01*
X006176Y004698D01*
X006042Y004564D01*
X006081Y004604D02*
X006332Y004604D01*
X006390Y004662D02*
X006140Y004662D01*
X006176Y004721D02*
X007725Y004721D01*
X007667Y004779D02*
X006176Y004779D01*
X006176Y004838D02*
X007638Y004838D01*
X007638Y004896D02*
X006168Y004896D01*
X006109Y004955D02*
X007638Y004955D01*
X007653Y005013D02*
X006051Y005013D01*
X005843Y005013D02*
X005597Y005013D01*
X005597Y004955D02*
X005784Y004955D01*
X005726Y004896D02*
X005597Y004896D01*
X005597Y004838D02*
X005718Y004838D01*
X005718Y004779D02*
X005597Y004779D01*
X005597Y004721D02*
X005718Y004721D01*
X005754Y004662D02*
X005633Y004662D01*
X005693Y004604D02*
X005812Y004604D01*
X005754Y004545D02*
X006273Y004545D01*
X006583Y004662D02*
X008162Y004662D01*
X008138Y004721D02*
X008008Y004721D01*
X008067Y004779D02*
X008122Y004779D01*
X008122Y004838D02*
X008096Y004838D01*
X008096Y004896D02*
X008122Y004896D01*
X008142Y004955D02*
X008096Y004955D01*
X007867Y005189D02*
X005597Y005189D01*
X005597Y005247D02*
X007867Y005247D01*
X007867Y005306D02*
X005597Y005306D01*
X005597Y005364D02*
X007912Y005364D01*
X007971Y005423D02*
X006521Y005423D01*
X006502Y005403D02*
X006637Y005538D01*
X006637Y005728D01*
X006502Y005863D01*
X006311Y005863D01*
X006177Y005728D01*
X006177Y005538D01*
X006311Y005403D01*
X006502Y005403D01*
X006580Y005481D02*
X008383Y005481D01*
X008487Y005423D02*
X008222Y005423D01*
X008281Y005364D02*
X008487Y005364D01*
X008487Y005306D02*
X008327Y005306D01*
X008327Y005247D02*
X008487Y005247D01*
X008391Y005189D02*
X008327Y005189D01*
X008264Y005540D02*
X006637Y005540D01*
X006637Y005598D02*
X008205Y005598D01*
X008165Y005657D02*
X006637Y005657D01*
X006637Y005715D02*
X008140Y005715D01*
X008122Y005774D02*
X006591Y005774D01*
X006533Y005832D02*
X008122Y005832D01*
X008122Y005891D02*
X005597Y005891D01*
X005597Y005949D02*
X008140Y005949D01*
X008164Y006008D02*
X007656Y006008D01*
X007642Y005993D02*
X007777Y006128D01*
X007777Y006318D01*
X007687Y006408D01*
X007787Y006508D01*
X007787Y006698D01*
X007652Y006833D01*
X007461Y006833D01*
X007327Y006698D01*
X007327Y006508D01*
X007416Y006418D01*
X007317Y006318D01*
X007317Y006128D01*
X007451Y005993D01*
X007642Y005993D01*
X007715Y006066D02*
X008204Y006066D01*
X008262Y006125D02*
X007773Y006125D01*
X007777Y006183D02*
X008378Y006183D01*
X008270Y006242D02*
X008487Y006242D01*
X008487Y006300D02*
X008329Y006300D01*
X008367Y006359D02*
X008487Y006359D01*
X008487Y006417D02*
X008367Y006417D01*
X008367Y006476D02*
X008396Y006476D01*
X008003Y006242D02*
X007777Y006242D01*
X007777Y006300D02*
X007944Y006300D01*
X007907Y006359D02*
X007736Y006359D01*
X007696Y006417D02*
X007907Y006417D01*
X007907Y006476D02*
X007754Y006476D01*
X007787Y006534D02*
X007912Y006534D01*
X007948Y006593D02*
X007787Y006593D01*
X007787Y006651D02*
X007890Y006651D01*
X007833Y006710D02*
X007775Y006710D01*
X007776Y006768D02*
X007717Y006768D01*
X007718Y006827D02*
X007658Y006827D01*
X007661Y006885D02*
X007251Y006885D01*
X007192Y006827D02*
X007455Y006827D01*
X007396Y006768D02*
X007134Y006768D01*
X007075Y006710D02*
X007338Y006710D01*
X007327Y006651D02*
X007017Y006651D01*
X006958Y006593D02*
X007327Y006593D01*
X007327Y006534D02*
X006900Y006534D01*
X006841Y006476D02*
X007359Y006476D01*
X007415Y006417D02*
X006548Y006417D01*
X006532Y006433D02*
X006341Y006433D01*
X006207Y006298D01*
X006207Y006108D01*
X006341Y005973D01*
X006532Y005973D01*
X006667Y006108D01*
X006667Y006298D01*
X006532Y006433D01*
X006606Y006359D02*
X007357Y006359D01*
X007317Y006300D02*
X006665Y006300D01*
X006667Y006242D02*
X007317Y006242D01*
X007317Y006183D02*
X006667Y006183D01*
X006667Y006125D02*
X007320Y006125D01*
X007378Y006066D02*
X006625Y006066D01*
X006566Y006008D02*
X007437Y006008D01*
X006768Y006827D02*
X006705Y006827D01*
X006764Y006885D02*
X006827Y006885D01*
X006885Y006944D02*
X006767Y006944D01*
X006767Y007002D02*
X006944Y007002D01*
X007002Y007061D02*
X006767Y007061D01*
X006726Y007119D02*
X007061Y007119D01*
X007119Y007178D02*
X006667Y007178D01*
X006406Y007178D02*
X005663Y007178D01*
X005722Y007236D02*
X008487Y007236D01*
X008487Y007295D02*
X005780Y007295D01*
X005839Y007353D02*
X008487Y007353D01*
X008487Y007412D02*
X005897Y007412D01*
X005956Y007470D02*
X008409Y007470D01*
X008275Y007529D02*
X007266Y007529D01*
X007262Y007524D02*
X007396Y007658D01*
X007396Y007848D01*
X007262Y007982D01*
X007072Y007982D01*
X006938Y007848D01*
X006938Y007658D01*
X007072Y007524D01*
X007262Y007524D01*
X007325Y007587D02*
X008216Y007587D01*
X008169Y007646D02*
X007383Y007646D01*
X007396Y007704D02*
X008145Y007704D01*
X008122Y007763D02*
X007396Y007763D01*
X007396Y007821D02*
X008122Y007821D01*
X008122Y007880D02*
X007364Y007880D01*
X007306Y007938D02*
X008135Y007938D01*
X008159Y007997D02*
X006482Y007997D01*
X006541Y008055D02*
X008193Y008055D01*
X008251Y008114D02*
X006599Y008114D01*
X006658Y008172D02*
X008351Y008172D01*
X008487Y008231D02*
X006716Y008231D01*
X006775Y008289D02*
X008487Y008289D01*
X008487Y008348D02*
X006833Y008348D01*
X006892Y008406D02*
X008487Y008406D01*
X008487Y008465D02*
X006950Y008465D01*
X007009Y008523D02*
X008281Y008523D01*
X008222Y008582D02*
X007057Y008582D01*
X007059Y008640D02*
X008172Y008640D01*
X008147Y008699D02*
X007117Y008699D01*
X007137Y008757D02*
X008123Y008757D01*
X008122Y008816D02*
X007137Y008816D01*
X007137Y008874D02*
X008122Y008874D01*
X008133Y008933D02*
X007112Y008933D01*
X007054Y008991D02*
X008157Y008991D01*
X008187Y009050D02*
X006454Y009050D01*
X006476Y009028D02*
X006361Y009142D01*
X006447Y009228D01*
X006447Y009418D01*
X006312Y009553D01*
X006121Y009553D01*
X005987Y009418D01*
X005987Y009228D01*
X006102Y009112D01*
X006018Y009028D01*
X006018Y008838D01*
X006152Y008704D01*
X006342Y008704D01*
X006476Y008838D01*
X006476Y009028D01*
X006476Y008991D02*
X006759Y008991D01*
X006701Y008933D02*
X006476Y008933D01*
X006476Y008874D02*
X006677Y008874D01*
X006677Y008816D02*
X006453Y008816D01*
X006395Y008757D02*
X006677Y008757D01*
X006696Y008699D02*
X005416Y008699D01*
X005416Y008668D02*
X005282Y008534D01*
X005092Y008534D01*
X004958Y008668D01*
X004958Y008858D01*
X005092Y008992D01*
X005282Y008992D01*
X005416Y008858D01*
X005416Y008668D01*
X005388Y008640D02*
X006702Y008640D01*
X006643Y008582D02*
X005329Y008582D01*
X005416Y008757D02*
X006099Y008757D01*
X006040Y008816D02*
X005416Y008816D01*
X005400Y008874D02*
X006018Y008874D01*
X006018Y008933D02*
X005341Y008933D01*
X005283Y008991D02*
X006018Y008991D01*
X006039Y009050D02*
X004377Y009050D01*
X004377Y009048D02*
X004242Y008913D01*
X004051Y008913D01*
X003917Y009048D01*
X003917Y009238D01*
X004051Y009373D01*
X004242Y009373D01*
X004377Y009238D01*
X004377Y009048D01*
X004377Y009108D02*
X006098Y009108D01*
X006048Y009167D02*
X004377Y009167D01*
X004377Y009225D02*
X005989Y009225D01*
X005987Y009284D02*
X004331Y009284D01*
X004273Y009342D02*
X005987Y009342D01*
X005987Y009401D02*
X001487Y009401D01*
X001487Y009459D02*
X006027Y009459D01*
X006086Y009518D02*
X001679Y009518D01*
X001746Y009576D02*
X008227Y009576D01*
X008174Y009635D02*
X001800Y009635D01*
X001824Y009693D02*
X002221Y009693D01*
X002251Y009663D02*
X002442Y009663D01*
X002577Y009798D01*
X002577Y009988D01*
X002442Y010123D01*
X002251Y010123D01*
X002117Y009988D01*
X002117Y009798D01*
X002251Y009663D01*
X002163Y009752D02*
X001848Y009752D01*
X001852Y009810D02*
X002117Y009810D01*
X002117Y009869D02*
X001852Y009869D01*
X001843Y009927D02*
X002117Y009927D01*
X002117Y009986D02*
X001819Y009986D01*
X001792Y010044D02*
X002172Y010044D01*
X002231Y010103D02*
X001733Y010103D01*
X001648Y010161D02*
X008325Y010161D01*
X008240Y010103D02*
X002462Y010103D01*
X002521Y010044D02*
X008182Y010044D01*
X008155Y009986D02*
X002577Y009986D01*
X002577Y009927D02*
X008131Y009927D01*
X008122Y009869D02*
X002577Y009869D01*
X002577Y009810D02*
X008122Y009810D01*
X008125Y009752D02*
X002530Y009752D01*
X002472Y009693D02*
X008150Y009693D01*
X008294Y009518D02*
X006347Y009518D01*
X006406Y009459D02*
X008487Y009459D01*
X008487Y009401D02*
X006447Y009401D01*
X006447Y009342D02*
X008487Y009342D01*
X008487Y009284D02*
X006447Y009284D01*
X006444Y009225D02*
X008487Y009225D01*
X008338Y009167D02*
X006385Y009167D01*
X006396Y009108D02*
X008246Y009108D01*
X008487Y010220D02*
X006368Y010220D01*
X006427Y010278D02*
X008487Y010278D01*
X006581Y010863D02*
X006512Y010863D01*
X006514Y011156D02*
X006439Y011156D01*
X006007Y010337D02*
X001487Y010337D01*
X001487Y010395D02*
X002229Y010395D01*
X002171Y010454D02*
X001487Y010454D01*
X001666Y010512D02*
X002147Y010512D01*
X002147Y010571D02*
X001740Y010571D01*
X001797Y010629D02*
X002147Y010629D01*
X002166Y010688D02*
X001821Y010688D01*
X001487Y010278D02*
X006046Y010278D01*
X006105Y010220D02*
X001487Y010220D01*
X001487Y009342D02*
X004020Y009342D01*
X003962Y009284D02*
X001487Y009284D01*
X001487Y009225D02*
X003917Y009225D01*
X003917Y009167D02*
X001635Y009167D01*
X001728Y009108D02*
X003917Y009108D01*
X003917Y009050D02*
X001786Y009050D01*
X001816Y008991D02*
X003973Y008991D01*
X004032Y008933D02*
X001841Y008933D01*
X001852Y008874D02*
X004974Y008874D01*
X004958Y008816D02*
X001852Y008816D01*
X001850Y008757D02*
X004958Y008757D01*
X004958Y008699D02*
X001826Y008699D01*
X001802Y008640D02*
X004986Y008640D01*
X005044Y008582D02*
X001751Y008582D01*
X001692Y008523D02*
X006585Y008523D01*
X006526Y008465D02*
X001487Y008465D01*
X001487Y008406D02*
X006468Y008406D01*
X006409Y008348D02*
X001487Y008348D01*
X001487Y008289D02*
X002639Y008289D01*
X002662Y008312D02*
X002528Y008178D01*
X002528Y007988D01*
X002603Y007913D01*
X002538Y007848D01*
X002538Y007658D01*
X002672Y007524D01*
X002862Y007524D01*
X002996Y007658D01*
X002996Y007848D01*
X002921Y007923D01*
X002986Y007988D01*
X002986Y008178D01*
X002852Y008312D01*
X002662Y008312D01*
X002580Y008231D02*
X001487Y008231D01*
X001622Y008172D02*
X002528Y008172D01*
X002528Y008114D02*
X001722Y008114D01*
X001781Y008055D02*
X002528Y008055D01*
X002528Y007997D02*
X001814Y007997D01*
X001838Y007938D02*
X002578Y007938D01*
X002569Y007880D02*
X001852Y007880D01*
X001852Y007821D02*
X002538Y007821D01*
X002538Y007763D02*
X002082Y007763D01*
X002141Y007704D02*
X002538Y007704D01*
X002550Y007646D02*
X002199Y007646D01*
X002217Y007587D02*
X002609Y007587D01*
X002667Y007529D02*
X002217Y007529D01*
X002237Y007470D02*
X005532Y007470D01*
X005590Y007529D02*
X002866Y007529D01*
X002925Y007587D02*
X005649Y007587D01*
X005707Y007646D02*
X002983Y007646D01*
X002996Y007704D02*
X005766Y007704D01*
X005824Y007763D02*
X002996Y007763D01*
X002996Y007821D02*
X005883Y007821D01*
X005941Y007880D02*
X002964Y007880D01*
X002936Y007938D02*
X006000Y007938D01*
X006058Y007997D02*
X002986Y007997D01*
X002986Y008055D02*
X006117Y008055D01*
X006175Y008114D02*
X002986Y008114D01*
X002986Y008172D02*
X006234Y008172D01*
X006292Y008231D02*
X002933Y008231D01*
X002875Y008289D02*
X006351Y008289D01*
X006424Y007938D02*
X007028Y007938D01*
X006969Y007880D02*
X006365Y007880D01*
X006307Y007821D02*
X006938Y007821D01*
X006938Y007763D02*
X006248Y007763D01*
X006190Y007704D02*
X006938Y007704D01*
X006950Y007646D02*
X006131Y007646D01*
X006073Y007587D02*
X007009Y007587D01*
X007067Y007529D02*
X006014Y007529D01*
X006049Y007061D02*
X005964Y007061D01*
X005689Y007061D02*
X005597Y007061D01*
X005605Y007119D02*
X006347Y007119D01*
X006025Y006710D02*
X005988Y006710D01*
X005930Y006651D02*
X006083Y006651D01*
X006235Y006593D02*
X005597Y006593D01*
X005597Y006651D02*
X005723Y006651D01*
X005665Y006710D02*
X005597Y006710D01*
X005597Y006768D02*
X005606Y006768D01*
X005597Y006827D02*
X005597Y006827D01*
X005597Y006885D02*
X005597Y006885D01*
X005597Y006944D02*
X005597Y006944D01*
X005597Y007002D02*
X005630Y007002D01*
X005297Y007002D02*
X005173Y007002D01*
X005152Y007023D02*
X005287Y006888D01*
X005287Y006698D01*
X005152Y006563D01*
X004961Y006563D01*
X004827Y006698D01*
X004827Y006888D01*
X004961Y007023D01*
X005152Y007023D01*
X005231Y006944D02*
X005297Y006944D01*
X005287Y006885D02*
X005297Y006885D01*
X005287Y006827D02*
X005297Y006827D01*
X005287Y006768D02*
X005297Y006768D01*
X005287Y006710D02*
X005297Y006710D01*
X005297Y006651D02*
X005240Y006651D01*
X005297Y006593D02*
X005181Y006593D01*
X005297Y006534D02*
X004651Y006534D01*
X004622Y006563D02*
X004757Y006428D01*
X004757Y006238D01*
X004622Y006103D01*
X004431Y006103D01*
X004297Y006238D01*
X004297Y006428D01*
X004431Y006563D01*
X004622Y006563D01*
X004709Y006476D02*
X005297Y006476D01*
X005297Y006417D02*
X004757Y006417D01*
X004757Y006359D02*
X005297Y006359D01*
X005297Y006300D02*
X004757Y006300D01*
X004757Y006242D02*
X005297Y006242D01*
X005297Y006183D02*
X004702Y006183D01*
X004643Y006125D02*
X005297Y006125D01*
X005297Y006066D02*
X003685Y006066D01*
X003632Y006013D02*
X003767Y006148D01*
X003767Y006338D01*
X003632Y006473D01*
X003441Y006473D01*
X003307Y006338D01*
X003307Y006148D01*
X003441Y006013D01*
X003632Y006013D01*
X003743Y006125D02*
X004410Y006125D01*
X004351Y006183D02*
X003767Y006183D01*
X003767Y006242D02*
X004297Y006242D01*
X004297Y006300D02*
X003767Y006300D01*
X003746Y006359D02*
X004297Y006359D01*
X004297Y006417D02*
X003688Y006417D01*
X003385Y006417D02*
X002975Y006417D01*
X003033Y006359D02*
X003327Y006359D01*
X003307Y006300D02*
X003092Y006300D01*
X003150Y006242D02*
X003307Y006242D01*
X003307Y006183D02*
X003209Y006183D01*
X003267Y006125D02*
X003330Y006125D01*
X003326Y006066D02*
X003388Y006066D01*
X003384Y006008D02*
X005297Y006008D01*
X005297Y005949D02*
X004106Y005949D01*
X004072Y005983D02*
X003881Y005983D01*
X003747Y005848D01*
X003747Y005658D01*
X003881Y005523D01*
X004072Y005523D01*
X004207Y005658D01*
X004207Y005848D01*
X004072Y005983D01*
X004164Y005891D02*
X005297Y005891D01*
X005297Y005832D02*
X004207Y005832D01*
X004207Y005774D02*
X005297Y005774D01*
X005297Y005715D02*
X004207Y005715D01*
X004205Y005657D02*
X005297Y005657D01*
X005297Y005598D02*
X004147Y005598D01*
X004088Y005540D02*
X005297Y005540D01*
X005297Y005481D02*
X003911Y005481D01*
X003865Y005540D02*
X003852Y005540D01*
X003806Y005598D02*
X003794Y005598D01*
X003748Y005657D02*
X003735Y005657D01*
X003747Y005715D02*
X003677Y005715D01*
X003618Y005774D02*
X003747Y005774D01*
X003747Y005832D02*
X003560Y005832D01*
X003501Y005891D02*
X003789Y005891D01*
X003847Y005949D02*
X003443Y005949D01*
X003253Y005715D02*
X002797Y005715D01*
X002797Y005657D02*
X003311Y005657D01*
X003370Y005598D02*
X002797Y005598D01*
X002797Y005788D01*
X002662Y005923D01*
X002471Y005923D01*
X002396Y005847D01*
X002396Y005848D01*
X002262Y005982D01*
X002072Y005982D01*
X001938Y005848D01*
X001938Y005658D01*
X002072Y005524D01*
X002262Y005524D01*
X002337Y005599D01*
X002337Y005598D01*
X002336Y005598D01*
X002337Y005598D02*
X002471Y005463D01*
X002662Y005463D01*
X002797Y005598D01*
X002738Y005540D02*
X003428Y005540D01*
X003487Y005481D02*
X002680Y005481D01*
X002453Y005481D02*
X001591Y005481D01*
X001709Y005540D02*
X002056Y005540D01*
X001998Y005598D02*
X001768Y005598D01*
X001809Y005657D02*
X001939Y005657D01*
X001938Y005715D02*
X001833Y005715D01*
X001852Y005774D02*
X001938Y005774D01*
X001938Y005832D02*
X001852Y005832D01*
X001852Y005891D02*
X001980Y005891D01*
X002039Y005949D02*
X001834Y005949D01*
X001809Y006008D02*
X002960Y006008D01*
X002902Y006066D02*
X001770Y006066D01*
X001711Y006125D02*
X002843Y006125D01*
X002785Y006183D02*
X001595Y006183D01*
X001487Y006242D02*
X002726Y006242D01*
X002668Y006300D02*
X001487Y006300D01*
X001487Y006359D02*
X002609Y006359D01*
X002551Y006417D02*
X001487Y006417D01*
X001577Y006476D02*
X002220Y006476D01*
X002162Y006534D02*
X001704Y006534D01*
X001762Y006593D02*
X002138Y006593D01*
X002138Y006651D02*
X001806Y006651D01*
X001831Y006710D02*
X002138Y006710D01*
X002158Y006768D02*
X001852Y006768D01*
X001852Y006827D02*
X002141Y006827D01*
X002083Y006885D02*
X001852Y006885D01*
X001836Y006944D02*
X002024Y006944D01*
X001966Y007002D02*
X001812Y007002D01*
X001775Y007061D02*
X001937Y007061D01*
X001937Y007119D02*
X001717Y007119D01*
X001609Y007178D02*
X001937Y007178D01*
X001937Y007236D02*
X001487Y007236D01*
X001487Y007295D02*
X001937Y007295D01*
X001841Y007353D02*
X001487Y007353D01*
X001487Y007412D02*
X001783Y007412D01*
X001757Y007470D02*
X001564Y007470D01*
X001698Y007529D02*
X001757Y007529D01*
X001828Y007704D02*
X001832Y007704D01*
X002237Y007412D02*
X005473Y007412D01*
X005415Y007353D02*
X002237Y007353D01*
X002237Y007295D02*
X005356Y007295D01*
X005298Y007236D02*
X002237Y007236D01*
X002237Y007178D02*
X005297Y007178D01*
X005297Y007119D02*
X002273Y007119D01*
X002331Y007061D02*
X003999Y007061D01*
X004041Y007103D02*
X003907Y006968D01*
X003907Y006778D01*
X004041Y006643D01*
X004232Y006643D01*
X004367Y006778D01*
X004367Y006968D01*
X004232Y007103D01*
X004041Y007103D01*
X003940Y007002D02*
X002390Y007002D01*
X002448Y006944D02*
X003907Y006944D01*
X003907Y006885D02*
X002507Y006885D01*
X002565Y006827D02*
X003907Y006827D01*
X003916Y006768D02*
X002624Y006768D01*
X002682Y006710D02*
X003975Y006710D01*
X004033Y006651D02*
X002741Y006651D01*
X002799Y006593D02*
X004932Y006593D01*
X004873Y006651D02*
X004240Y006651D01*
X004298Y006710D02*
X004827Y006710D01*
X004827Y006768D02*
X004357Y006768D01*
X004367Y006827D02*
X004827Y006827D01*
X004827Y006885D02*
X004367Y006885D01*
X004367Y006944D02*
X004882Y006944D01*
X004940Y007002D02*
X004333Y007002D01*
X004274Y007061D02*
X005297Y007061D01*
X005597Y006534D02*
X006294Y006534D01*
X006352Y006476D02*
X005597Y006476D01*
X005597Y006417D02*
X006325Y006417D01*
X006267Y006359D02*
X005597Y006359D01*
X005597Y006300D02*
X006208Y006300D01*
X006207Y006242D02*
X005597Y006242D01*
X005597Y006183D02*
X006207Y006183D01*
X006207Y006125D02*
X005597Y006125D01*
X005597Y006066D02*
X006248Y006066D01*
X006307Y006008D02*
X005597Y006008D01*
X005597Y005832D02*
X006280Y005832D01*
X006222Y005774D02*
X005597Y005774D01*
X005597Y005715D02*
X006177Y005715D01*
X006177Y005657D02*
X005597Y005657D01*
X005597Y005598D02*
X006177Y005598D01*
X006177Y005540D02*
X005597Y005540D01*
X005597Y005481D02*
X006233Y005481D01*
X006292Y005423D02*
X005597Y005423D01*
X005597Y005130D02*
X007770Y005130D01*
X007711Y005072D02*
X005597Y005072D01*
X005297Y005072D02*
X004147Y005072D01*
X004147Y005130D02*
X005297Y005130D01*
X005297Y005189D02*
X004147Y005189D01*
X004145Y005247D02*
X005297Y005247D01*
X005297Y005306D02*
X004086Y005306D01*
X004028Y005364D02*
X005297Y005364D01*
X005297Y005423D02*
X003969Y005423D01*
X003194Y005774D02*
X002797Y005774D01*
X002753Y005832D02*
X003136Y005832D01*
X003077Y005891D02*
X002694Y005891D01*
X003019Y005949D02*
X002295Y005949D01*
X002353Y005891D02*
X002439Y005891D01*
X002395Y005540D02*
X002277Y005540D01*
X002916Y006476D02*
X004344Y006476D01*
X004402Y006534D02*
X002858Y006534D01*
X005141Y004604D02*
X005297Y004604D01*
X005296Y004662D02*
X005200Y004662D01*
X005226Y004721D02*
X005297Y004721D01*
X005297Y004779D02*
X005226Y004779D01*
X005226Y004838D02*
X005297Y004838D01*
X005297Y004896D02*
X005208Y004896D01*
X005648Y004077D02*
X005725Y004077D01*
X006025Y003726D02*
X006038Y003726D01*
X006097Y003668D02*
X005966Y003668D01*
X006662Y003434D02*
X007982Y003434D01*
X007955Y003668D02*
X008160Y003668D01*
X008136Y003726D02*
X008014Y003726D01*
X008072Y003785D02*
X008122Y003785D01*
X008122Y003843D02*
X008086Y003843D01*
X008086Y003902D02*
X008122Y003902D01*
X008144Y003960D02*
X008086Y003960D01*
X008327Y004194D02*
X008404Y004194D01*
X008327Y004253D02*
X008487Y004253D01*
X008487Y004311D02*
X008327Y004311D01*
X008275Y004370D02*
X008487Y004370D01*
X008487Y004428D02*
X008217Y004428D01*
X008258Y004545D02*
X006700Y004545D01*
X006717Y004487D02*
X008369Y004487D01*
X008200Y004604D02*
X006641Y004604D01*
X006717Y004428D02*
X007976Y004428D01*
X007918Y004370D02*
X006717Y004370D01*
X006690Y004311D02*
X007867Y004311D01*
X007867Y004253D02*
X006631Y004253D01*
X008081Y006885D02*
X008122Y006885D01*
X008137Y006944D02*
X008024Y006944D01*
X007966Y007002D02*
X008162Y007002D01*
X008198Y007061D02*
X007909Y007061D01*
X007851Y007119D02*
X008257Y007119D01*
X008365Y007178D02*
X007794Y007178D01*
X005091Y008991D02*
X004320Y008991D01*
X004261Y008933D02*
X005032Y008933D01*
X003918Y010746D02*
X003889Y010746D01*
X003697Y012209D02*
X004687Y012209D01*
X004687Y012267D02*
X003756Y012267D01*
X003814Y012326D02*
X004687Y012326D01*
X004687Y012384D02*
X003827Y012384D01*
X003827Y012443D02*
X004687Y012443D01*
X004687Y012501D02*
X003827Y012501D01*
X003795Y012560D02*
X004687Y012560D01*
X004687Y012618D02*
X003737Y012618D01*
X005028Y013437D02*
X005155Y013437D01*
X005097Y013379D02*
X005086Y013379D01*
X005418Y013437D02*
X005872Y013437D01*
X005960Y013379D02*
X005476Y013379D01*
D16*
X006907Y008813D02*
X006907Y008633D01*
X005447Y007173D01*
X005447Y004633D01*
X005737Y004353D01*
X005987Y004353D01*
X006227Y004113D01*
X006227Y003863D01*
X003997Y003603D02*
X003997Y005183D01*
X002087Y007093D01*
X002087Y007433D01*
X001987Y007533D01*
X003567Y004803D02*
X002597Y003833D01*
X002057Y003833D01*
X006187Y006853D02*
X006187Y006873D01*
X006187Y006853D02*
X006417Y006623D01*
X006777Y006623D01*
X007237Y007083D01*
X007677Y007083D01*
X008207Y006543D01*
X008137Y006433D01*
D17*
X007947Y012213D03*
M02*
