G75*
%MOIN*%
%OFA0B0*%
%FSLAX24Y24*%
%IPPOS*%
%LPD*%
%AMOC8*
5,1,8,0,0,1.08239X$1,22.5*
%
%ADD10R,0.0354X0.0276*%
%ADD11R,0.0157X0.0531*%
%ADD12R,0.0591X0.0748*%
%ADD13C,0.0433*%
%ADD14R,0.0256X0.0492*%
%ADD15R,0.0315X0.0315*%
%ADD16R,0.0276X0.0354*%
%ADD17C,0.0690*%
%ADD18R,0.1050X0.0900*%
%ADD19R,0.0300X0.0500*%
%ADD20R,0.0472X0.0138*%
%ADD21R,0.0394X0.0394*%
%ADD22R,0.0138X0.0472*%
%ADD23C,0.0197*%
%ADD24R,0.0866X0.0413*%
%ADD25R,0.0413X0.0394*%
%ADD26R,0.0394X0.0591*%
%ADD27R,0.0433X0.0394*%
%ADD28R,0.0433X0.0551*%
%ADD29R,0.0197X0.0394*%
%ADD30R,0.0394X0.0433*%
%ADD31R,0.0236X0.0138*%
%ADD32R,0.0630X0.0827*%
%ADD33R,0.0327X0.0248*%
%ADD34R,0.0472X0.0787*%
%ADD35C,0.0278*%
%ADD36C,0.0060*%
%ADD37C,0.0120*%
%ADD38C,0.0200*%
%ADD39C,0.0100*%
%ADD40C,0.0280*%
%ADD41C,0.0150*%
%ADD42C,0.0240*%
%ADD43C,0.0360*%
%ADD44C,0.0080*%
D10*
X007577Y002087D03*
X007577Y002599D03*
X007581Y007522D03*
X007581Y008034D03*
X005887Y008067D03*
X005427Y008067D03*
X004947Y008067D03*
X004487Y008067D03*
X004057Y008067D03*
X003637Y008067D03*
X003637Y008579D03*
X004057Y008579D03*
X004487Y008579D03*
X004947Y008579D03*
X005427Y008579D03*
X005887Y008579D03*
X005837Y009127D03*
X005837Y009639D03*
X005837Y010027D03*
X005837Y010539D03*
X004147Y010059D03*
X004147Y009547D03*
X002617Y011397D03*
X002617Y011909D03*
X007587Y012537D03*
X007587Y013049D03*
D11*
X005498Y012780D03*
X005243Y012780D03*
X004987Y012780D03*
X004731Y012780D03*
X004475Y012780D03*
D12*
X004593Y013829D03*
X005380Y013833D03*
D13*
X006079Y014050D02*
X006079Y013617D01*
X003894Y013617D02*
X003894Y014050D01*
D14*
X003292Y010571D03*
X002682Y010571D03*
X002682Y009095D03*
X003292Y009095D03*
X006682Y009095D03*
X007292Y009095D03*
X007292Y010571D03*
X006682Y010571D03*
D15*
X006380Y008620D03*
X006380Y008030D03*
D16*
X006951Y008483D03*
X007463Y008483D03*
X007153Y012553D03*
X007153Y013023D03*
X006641Y013023D03*
X006641Y012553D03*
X003353Y013943D03*
X002841Y013943D03*
X003961Y002443D03*
X004473Y002443D03*
X004831Y002443D03*
X005343Y002443D03*
X005711Y002453D03*
X006223Y002453D03*
X006641Y002453D03*
X007153Y002453D03*
D17*
X008487Y002833D03*
X008487Y003833D03*
X008487Y004833D03*
X008487Y005833D03*
X008487Y006833D03*
X008487Y007833D03*
X008487Y008833D03*
X008487Y009833D03*
X008487Y010833D03*
X008487Y011833D03*
X008487Y012833D03*
X001487Y012833D03*
X001487Y011833D03*
X001487Y010833D03*
X001487Y009833D03*
X001487Y008833D03*
X001487Y007833D03*
X001487Y006833D03*
X001487Y005833D03*
X001487Y004833D03*
X001487Y003833D03*
X001487Y002833D03*
X001487Y001833D03*
X008487Y001833D03*
D18*
X007577Y013813D03*
D19*
X006652Y013813D03*
D20*
X006975Y007074D03*
X006975Y006799D03*
X006975Y006523D03*
X006975Y006248D03*
X006975Y005972D03*
X006975Y005696D03*
X006975Y005421D03*
X006975Y005145D03*
X006975Y004870D03*
X006975Y004594D03*
X006975Y004319D03*
X006975Y004043D03*
X006975Y003767D03*
X006975Y003492D03*
X002998Y003492D03*
X002998Y003767D03*
X002998Y004043D03*
X002998Y004319D03*
X002998Y004594D03*
X002998Y004870D03*
X002998Y005145D03*
X002998Y005421D03*
X002998Y005696D03*
X002998Y005972D03*
X002998Y006248D03*
X002998Y006523D03*
X002998Y006799D03*
X002998Y007074D03*
D21*
X002959Y007507D03*
X004042Y006228D03*
X004987Y006228D03*
X005932Y006228D03*
X005932Y005283D03*
X004987Y005283D03*
X004042Y005283D03*
X004042Y004338D03*
X004987Y004338D03*
X005932Y004338D03*
X007014Y003059D03*
X002959Y003059D03*
X007014Y007507D03*
D22*
X006640Y007468D03*
X006365Y007468D03*
X006089Y007468D03*
X005813Y007468D03*
X005538Y007468D03*
X005262Y007468D03*
X004987Y007468D03*
X004711Y007468D03*
X004435Y007468D03*
X004160Y007468D03*
X003884Y007468D03*
X003609Y007468D03*
X003333Y007468D03*
X003333Y003098D03*
X003609Y003098D03*
X003884Y003098D03*
X004160Y003098D03*
X004435Y003098D03*
X004711Y003098D03*
X004987Y003098D03*
X005262Y003098D03*
X005538Y003098D03*
X005813Y003098D03*
X006089Y003098D03*
X006365Y003098D03*
X006640Y003098D03*
D23*
X003609Y006858D03*
D24*
X002743Y002524D03*
X002743Y001362D03*
D25*
X003344Y001943D03*
D26*
X003402Y000733D03*
X006551Y000733D03*
D27*
X006552Y001723D03*
X007221Y001723D03*
X004231Y001773D03*
X003562Y001773D03*
D28*
X004632Y009262D03*
X005341Y009262D03*
X005341Y010404D03*
X004632Y010404D03*
D29*
X003273Y012649D03*
X002761Y012649D03*
X003017Y013357D03*
D30*
X003077Y011828D03*
X003077Y011158D03*
X007487Y011188D03*
X007487Y011858D03*
D31*
X007028Y012007D03*
X007028Y011633D03*
X007028Y011259D03*
X005925Y011259D03*
X005925Y011633D03*
X005925Y012007D03*
D32*
X006477Y011633D03*
D33*
X005457Y011906D03*
X005457Y011000D03*
D34*
X004857Y011443D03*
X003597Y011443D03*
D35*
X006247Y008933D03*
X005187Y008763D03*
X007167Y007753D03*
X007867Y004903D03*
X007857Y003893D03*
X007217Y002853D03*
X005867Y002083D03*
X005137Y002093D03*
X005147Y001293D03*
X004187Y001293D03*
X003367Y001293D03*
X002127Y001293D03*
X002577Y002923D03*
X003577Y004203D03*
X004997Y004783D03*
X005947Y004793D03*
X002367Y006653D03*
X002167Y005753D03*
X002767Y007753D03*
X002757Y008083D03*
X006157Y001293D03*
X006957Y001293D03*
X007047Y000923D03*
X007047Y000553D03*
X007897Y000553D03*
X008297Y000953D03*
D36*
X001987Y001183D02*
X001987Y002093D01*
X002247Y002353D01*
X002247Y002803D01*
X002737Y003293D01*
X002737Y003588D01*
X003280Y003588D01*
X003345Y003653D01*
X003345Y003882D01*
X003321Y003905D01*
X003345Y003928D01*
X003345Y004157D01*
X003321Y004181D01*
X003345Y004204D01*
X003345Y004433D01*
X003321Y004456D01*
X003345Y004480D01*
X003345Y004686D01*
X003355Y004661D01*
X003425Y004591D01*
X003517Y004553D01*
X003616Y004553D01*
X003708Y004591D01*
X003779Y004661D01*
X003817Y004753D01*
X003817Y004853D01*
X003779Y004945D01*
X003708Y005015D01*
X003669Y005031D01*
X003637Y005063D01*
X003487Y005213D01*
X003387Y005313D01*
X003345Y005313D01*
X003345Y005535D01*
X003321Y005559D01*
X003345Y005582D01*
X003345Y005735D01*
X003496Y005583D01*
X003793Y005583D01*
X003835Y005541D01*
X003927Y005503D01*
X004026Y005503D01*
X004118Y005541D01*
X004189Y005611D01*
X004227Y005703D01*
X004227Y005803D01*
X004189Y005895D01*
X004118Y005965D01*
X004026Y006003D01*
X003927Y006003D01*
X003835Y005965D01*
X003793Y005923D01*
X003637Y005923D01*
X003567Y005993D01*
X003586Y005993D01*
X003678Y006031D01*
X003749Y006101D01*
X003787Y006193D01*
X003787Y006293D01*
X003762Y006353D01*
X003777Y006353D01*
X003827Y006403D01*
X004216Y006403D01*
X004277Y006343D01*
X004277Y006283D01*
X004315Y006191D01*
X004385Y006121D01*
X004477Y006083D01*
X004576Y006083D01*
X004668Y006121D01*
X004739Y006191D01*
X004777Y006283D01*
X004777Y006383D01*
X004739Y006475D01*
X004668Y006545D01*
X004576Y006583D01*
X004517Y006583D01*
X004457Y006643D01*
X004357Y006743D01*
X004353Y006743D01*
X004387Y006823D01*
X004387Y006923D01*
X004349Y007015D01*
X004278Y007085D01*
X004189Y007122D01*
X004274Y007122D01*
X004339Y007186D01*
X004339Y007750D01*
X004317Y007771D01*
X004320Y007819D01*
X004541Y007819D01*
X004541Y007759D01*
X004532Y007750D01*
X004532Y007186D01*
X004597Y007122D01*
X004826Y007122D01*
X004890Y007186D01*
X004890Y007750D01*
X004881Y007759D01*
X004881Y007819D01*
X005169Y007819D01*
X005187Y007837D01*
X005204Y007819D01*
X005368Y007819D01*
X005368Y007814D01*
X005148Y007814D01*
X005083Y007750D01*
X005083Y007186D01*
X005148Y007122D01*
X005377Y007122D01*
X005400Y007145D01*
X005423Y007122D01*
X005652Y007122D01*
X005717Y007186D01*
X005717Y007750D01*
X005708Y007759D01*
X005708Y007819D01*
X006109Y007819D01*
X006115Y007825D01*
X006125Y007814D01*
X005975Y007814D01*
X005910Y007750D01*
X005910Y007261D01*
X005804Y007123D01*
X005777Y007123D01*
X005685Y007085D01*
X005615Y007015D01*
X005577Y006923D01*
X005577Y006823D01*
X005593Y006783D01*
X005487Y006783D01*
X005307Y006963D01*
X005240Y006963D01*
X005198Y007005D01*
X005106Y007043D01*
X005007Y007043D01*
X004915Y007005D01*
X004845Y006935D01*
X004807Y006843D01*
X004807Y006743D01*
X004845Y006651D01*
X004449Y006651D01*
X004508Y006593D02*
X004904Y006593D01*
X004915Y006581D02*
X005007Y006543D01*
X005106Y006543D01*
X005198Y006581D01*
X005203Y006586D01*
X005346Y006443D01*
X006216Y006443D01*
X006257Y006403D01*
X006270Y006390D01*
X006225Y006345D01*
X006187Y006253D01*
X006187Y006153D01*
X006225Y006061D01*
X006295Y005991D01*
X006387Y005953D01*
X006486Y005953D01*
X006578Y005991D01*
X006649Y006061D01*
X006655Y006078D01*
X006684Y006078D01*
X006693Y006069D01*
X007256Y006069D01*
X007257Y006064D01*
X007257Y005875D01*
X007257Y005875D01*
X006693Y005875D01*
X006629Y005811D01*
X006629Y005750D01*
X006619Y005775D01*
X006548Y005845D01*
X006456Y005883D01*
X006357Y005883D01*
X006265Y005845D01*
X006195Y005775D01*
X006157Y005683D01*
X006157Y005583D01*
X006195Y005491D01*
X006265Y005421D01*
X006317Y005400D01*
X006317Y004617D01*
X006275Y004575D01*
X006237Y004483D01*
X006237Y004383D01*
X006275Y004291D01*
X006345Y004221D01*
X006437Y004183D01*
X006536Y004183D01*
X006628Y004221D01*
X006629Y004221D01*
X006629Y004204D01*
X006693Y004140D01*
X007257Y004140D01*
X007257Y003681D01*
X007246Y003671D01*
X006777Y003671D01*
X006777Y003673D01*
X006739Y003765D01*
X006668Y003835D01*
X006576Y003873D01*
X006477Y003873D01*
X006477Y003873D01*
X006477Y003913D01*
X006439Y004005D01*
X006368Y004075D01*
X006276Y004113D01*
X006177Y004113D01*
X006085Y004075D01*
X006052Y004042D01*
X005998Y004095D01*
X005906Y004133D01*
X005807Y004133D01*
X005715Y004095D01*
X005687Y004067D01*
X005618Y004135D01*
X005526Y004173D01*
X005427Y004173D01*
X005335Y004135D01*
X005265Y004065D01*
X005227Y003973D01*
X005227Y003913D01*
X005147Y003993D01*
X004737Y003993D01*
X004667Y004063D01*
X004667Y004590D01*
X004709Y004631D01*
X004747Y004723D01*
X004747Y004823D01*
X004709Y004915D01*
X004638Y004985D01*
X004546Y005023D01*
X004447Y005023D01*
X004355Y004985D01*
X004285Y004915D01*
X004247Y004823D01*
X004247Y004723D01*
X004285Y004631D01*
X004327Y004590D01*
X004327Y003923D01*
X004476Y003773D01*
X004180Y003773D01*
X004138Y003815D01*
X004046Y003853D01*
X003947Y003853D01*
X003855Y003815D01*
X003785Y003745D01*
X003747Y003653D01*
X003747Y003553D01*
X003785Y003461D01*
X003855Y003391D01*
X003947Y003353D01*
X004046Y003353D01*
X004138Y003391D01*
X004180Y003433D01*
X004310Y003433D01*
X004257Y003380D01*
X004257Y002816D01*
X004275Y002797D01*
X004275Y002717D01*
X004225Y002666D01*
X004225Y002220D01*
X004289Y002156D01*
X005014Y002156D01*
X005079Y002220D01*
X005079Y002666D01*
X005014Y002730D01*
X004595Y002730D01*
X004595Y002753D01*
X004597Y002752D01*
X004826Y002752D01*
X004890Y002816D01*
X004890Y003380D01*
X004837Y003433D01*
X004918Y003433D01*
X005083Y003274D01*
X005083Y002816D01*
X005148Y002752D01*
X005377Y002752D01*
X005400Y002775D01*
X005423Y002752D01*
X005652Y002752D01*
X005676Y002775D01*
X005699Y002752D01*
X005928Y002752D01*
X005951Y002775D01*
X005975Y002752D01*
X006079Y002752D01*
X006068Y002740D01*
X006039Y002740D01*
X005975Y002676D01*
X005975Y002230D01*
X006039Y002166D01*
X006406Y002166D01*
X006470Y002230D01*
X006470Y002676D01*
X006463Y002683D01*
X006525Y002745D01*
X006525Y002753D01*
X006526Y002752D01*
X006755Y002752D01*
X006819Y002816D01*
X006819Y003313D01*
X007253Y003313D01*
X007317Y003257D01*
X007317Y003163D01*
X007407Y003073D01*
X007407Y002847D01*
X007354Y002847D01*
X007290Y002782D01*
X007290Y002759D01*
X007232Y002759D01*
X007213Y002740D01*
X006969Y002740D01*
X006905Y002676D01*
X006905Y002230D01*
X006969Y002166D01*
X007336Y002166D01*
X007400Y002230D01*
X007400Y002351D01*
X007799Y002351D01*
X007864Y002416D01*
X007864Y002782D01*
X007799Y002847D01*
X007747Y002847D01*
X007747Y003213D01*
X007659Y003301D01*
X007657Y003338D01*
X007657Y003403D01*
X007653Y003408D01*
X007652Y003413D01*
X007603Y003457D01*
X007558Y003502D01*
X007597Y003540D01*
X007597Y005973D01*
X007688Y006011D01*
X007733Y006056D01*
X007987Y005795D01*
X007987Y005448D01*
X007955Y005435D01*
X007885Y005365D01*
X007847Y005273D01*
X007847Y005173D01*
X007885Y005081D01*
X007955Y005011D01*
X007987Y004998D01*
X007987Y004448D01*
X007955Y004435D01*
X007885Y004365D01*
X007847Y004273D01*
X007847Y004173D01*
X007885Y004081D01*
X007955Y004011D01*
X007987Y003998D01*
X007987Y003448D01*
X007955Y003435D01*
X007885Y003365D01*
X007847Y003273D01*
X007847Y003173D01*
X007885Y003081D01*
X007955Y003011D01*
X007987Y002998D01*
X007987Y002533D01*
X008280Y002240D01*
X008229Y002219D01*
X008101Y002091D01*
X008032Y001924D01*
X008032Y001743D01*
X008101Y001575D01*
X008229Y001447D01*
X008387Y001382D01*
X008387Y001183D01*
X006848Y001183D01*
X006832Y001199D01*
X006832Y001346D01*
X006843Y001346D01*
X006949Y001452D01*
X006949Y001994D01*
X006927Y002016D01*
X006927Y002133D01*
X008171Y002133D01*
X008118Y002079D01*
X008052Y001920D01*
X008052Y001747D01*
X008118Y001587D01*
X008240Y001464D01*
X008400Y001398D01*
X008487Y001398D01*
X008487Y000989D01*
X007941Y000443D01*
X006928Y000443D01*
X006928Y001103D01*
X006927Y001105D01*
X006927Y001430D01*
X006949Y001452D01*
X006949Y001994D01*
X006843Y002100D01*
X006261Y002100D01*
X006155Y001994D01*
X006155Y001963D01*
X004628Y001963D01*
X004628Y002044D01*
X004522Y002150D01*
X003940Y002150D01*
X003897Y002106D01*
X003853Y002150D01*
X003817Y002150D01*
X003817Y002449D01*
X003825Y002532D01*
X003780Y002719D01*
X003780Y002719D01*
X003677Y002882D01*
X003601Y002942D01*
X003582Y002957D01*
X003582Y003409D01*
X003477Y003514D01*
X003190Y003514D01*
X003084Y003409D01*
X003084Y002844D01*
X003084Y002844D01*
X003084Y002844D01*
X003084Y002844D01*
X003084Y002787D01*
X003125Y002747D01*
X003149Y002690D01*
X003155Y002636D01*
X003209Y002539D01*
X003252Y002504D01*
X003254Y002502D01*
X003257Y002498D01*
X003257Y002477D01*
X003253Y002435D01*
X003257Y002421D01*
X003257Y002320D01*
X003063Y002320D01*
X002958Y002214D01*
X002958Y001672D01*
X003063Y001566D01*
X003165Y001566D01*
X003165Y001502D01*
X003271Y001396D01*
X003853Y001396D01*
X003897Y001440D01*
X003940Y001396D01*
X004522Y001396D01*
X004529Y001403D01*
X006204Y001403D01*
X006261Y001346D01*
X006272Y001346D01*
X006272Y001200D01*
X006255Y001183D01*
X001987Y001183D01*
X001987Y001211D02*
X006272Y001211D01*
X006272Y001269D02*
X001987Y001269D01*
X001987Y001328D02*
X006272Y001328D01*
X006221Y001386D02*
X001987Y001386D01*
X001987Y001445D02*
X003223Y001445D01*
X003165Y001503D02*
X001987Y001503D01*
X001987Y001562D02*
X003165Y001562D01*
X003009Y001620D02*
X001987Y001620D01*
X001987Y001679D02*
X002958Y001679D01*
X002958Y001737D02*
X001987Y001737D01*
X001987Y001796D02*
X002958Y001796D01*
X002958Y001854D02*
X001987Y001854D01*
X001987Y001913D02*
X002958Y001913D01*
X002958Y001971D02*
X001987Y001971D01*
X001987Y002030D02*
X002958Y002030D01*
X002958Y002088D02*
X001987Y002088D01*
X002041Y002147D02*
X002958Y002147D01*
X002958Y002205D02*
X002099Y002205D01*
X002158Y002264D02*
X003007Y002264D01*
X003257Y002322D02*
X002216Y002322D01*
X002247Y002381D02*
X003257Y002381D01*
X003253Y002439D02*
X002247Y002439D01*
X002247Y002498D02*
X003257Y002498D01*
X003199Y002556D02*
X002247Y002556D01*
X002247Y002615D02*
X003167Y002615D01*
X003151Y002673D02*
X002247Y002673D01*
X002247Y002732D02*
X003131Y002732D01*
X003084Y002790D02*
X002247Y002790D01*
X002293Y002849D02*
X003084Y002849D01*
X003084Y002907D02*
X002351Y002907D01*
X002410Y002966D02*
X003084Y002966D01*
X003084Y003024D02*
X002468Y003024D01*
X002527Y003083D02*
X003084Y003083D01*
X003084Y003141D02*
X002585Y003141D01*
X002644Y003200D02*
X003084Y003200D01*
X003084Y003258D02*
X002702Y003258D01*
X002737Y003317D02*
X003084Y003317D01*
X003084Y003375D02*
X002737Y003375D01*
X002737Y003434D02*
X003109Y003434D01*
X003167Y003492D02*
X002737Y003492D01*
X002737Y003551D02*
X003748Y003551D01*
X003747Y003609D02*
X003301Y003609D01*
X003345Y003668D02*
X003753Y003668D01*
X003777Y003726D02*
X003345Y003726D01*
X003345Y003785D02*
X003825Y003785D01*
X003923Y003843D02*
X003345Y003843D01*
X003325Y003902D02*
X004348Y003902D01*
X004327Y003960D02*
X003345Y003960D01*
X003345Y004019D02*
X004327Y004019D01*
X004327Y004077D02*
X003345Y004077D01*
X003345Y004136D02*
X004327Y004136D01*
X004327Y004194D02*
X003335Y004194D01*
X003345Y004253D02*
X004327Y004253D01*
X004327Y004311D02*
X003345Y004311D01*
X003345Y004370D02*
X004327Y004370D01*
X004327Y004428D02*
X003345Y004428D01*
X003345Y004487D02*
X004327Y004487D01*
X004327Y004545D02*
X003345Y004545D01*
X003345Y004604D02*
X003413Y004604D01*
X003354Y004662D02*
X003345Y004662D01*
X003721Y004604D02*
X004313Y004604D01*
X004272Y004662D02*
X003779Y004662D01*
X003803Y004721D02*
X004248Y004721D01*
X004247Y004779D02*
X003817Y004779D01*
X003817Y004838D02*
X004253Y004838D01*
X004277Y004896D02*
X003799Y004896D01*
X003769Y004955D02*
X004325Y004955D01*
X004423Y005013D02*
X003710Y005013D01*
X003637Y005063D02*
X003637Y005063D01*
X003629Y005072D02*
X006317Y005072D01*
X006317Y005130D02*
X003570Y005130D01*
X003512Y005189D02*
X006317Y005189D01*
X006317Y005247D02*
X003453Y005247D01*
X003487Y005213D02*
X003487Y005213D01*
X003395Y005306D02*
X006317Y005306D01*
X006317Y005364D02*
X003345Y005364D01*
X003345Y005423D02*
X006264Y005423D01*
X006205Y005481D02*
X003345Y005481D01*
X003340Y005540D02*
X003839Y005540D01*
X004115Y005540D02*
X006175Y005540D01*
X006157Y005598D02*
X004175Y005598D01*
X004207Y005657D02*
X006157Y005657D01*
X006170Y005715D02*
X004227Y005715D01*
X004227Y005774D02*
X006194Y005774D01*
X006252Y005832D02*
X004215Y005832D01*
X004190Y005891D02*
X007257Y005891D01*
X007257Y005949D02*
X004134Y005949D01*
X004323Y006183D02*
X003782Y006183D01*
X003787Y006242D02*
X004294Y006242D01*
X004277Y006300D02*
X003784Y006300D01*
X003783Y006359D02*
X004261Y006359D01*
X004382Y006125D02*
X003758Y006125D01*
X003713Y006066D02*
X006223Y006066D01*
X006199Y006125D02*
X004672Y006125D01*
X004730Y006183D02*
X006187Y006183D01*
X006187Y006242D02*
X004759Y006242D01*
X004777Y006300D02*
X006206Y006300D01*
X006239Y006359D02*
X004777Y006359D01*
X004762Y006417D02*
X006242Y006417D01*
X006279Y006008D02*
X003621Y006008D01*
X003611Y005949D02*
X003819Y005949D01*
X003423Y005657D02*
X003345Y005657D01*
X003345Y005715D02*
X003364Y005715D01*
X003345Y005598D02*
X003481Y005598D01*
X002652Y005928D02*
X002616Y005943D01*
X002517Y005943D01*
X002425Y005905D01*
X002355Y005835D01*
X002317Y005743D01*
X002317Y005643D01*
X002355Y005552D01*
X002226Y005423D01*
X002127Y005323D01*
X002127Y004180D01*
X002116Y004127D01*
X002127Y004112D01*
X002127Y004093D01*
X002157Y004062D01*
X002106Y004083D01*
X002007Y004083D01*
X001987Y004075D01*
X001987Y007283D01*
X002036Y007283D01*
X002128Y007321D01*
X002199Y007391D01*
X002227Y007459D01*
X002227Y007153D01*
X002326Y007053D01*
X002475Y006904D01*
X002652Y006904D01*
X002652Y006684D01*
X002676Y006661D01*
X002652Y006638D01*
X002652Y006409D01*
X002676Y006385D01*
X002652Y006362D01*
X002652Y006133D01*
X002676Y006110D01*
X002652Y006087D01*
X002652Y005928D01*
X002652Y005949D02*
X001987Y005949D01*
X001987Y005891D02*
X002411Y005891D01*
X002354Y005832D02*
X001987Y005832D01*
X001987Y005774D02*
X002329Y005774D01*
X002317Y005715D02*
X001987Y005715D01*
X001987Y005657D02*
X002317Y005657D01*
X002335Y005598D02*
X001987Y005598D01*
X001987Y005540D02*
X002343Y005540D01*
X002284Y005481D02*
X001987Y005481D01*
X001987Y005423D02*
X002226Y005423D01*
X002167Y005364D02*
X001987Y005364D01*
X001987Y005306D02*
X002127Y005306D01*
X002127Y005247D02*
X001987Y005247D01*
X001987Y005189D02*
X002127Y005189D01*
X002127Y005130D02*
X001987Y005130D01*
X001987Y005072D02*
X002127Y005072D01*
X002127Y005013D02*
X001987Y005013D01*
X001987Y004955D02*
X002127Y004955D01*
X002127Y004896D02*
X001987Y004896D01*
X001987Y004838D02*
X002127Y004838D01*
X002127Y004779D02*
X001987Y004779D01*
X001987Y004721D02*
X002127Y004721D01*
X002127Y004662D02*
X001987Y004662D01*
X001987Y004604D02*
X002127Y004604D01*
X002127Y004545D02*
X001987Y004545D01*
X001987Y004487D02*
X002127Y004487D01*
X002127Y004428D02*
X001987Y004428D01*
X001987Y004370D02*
X002127Y004370D01*
X002127Y004311D02*
X001987Y004311D01*
X001987Y004253D02*
X002127Y004253D01*
X002127Y004194D02*
X001987Y004194D01*
X001987Y004136D02*
X002118Y004136D01*
X002121Y004077D02*
X002142Y004077D01*
X001992Y004077D02*
X001987Y004077D01*
X003499Y003492D02*
X003772Y003492D01*
X003813Y003434D02*
X003557Y003434D01*
X003582Y003375D02*
X003894Y003375D01*
X004100Y003375D02*
X004257Y003375D01*
X004257Y003317D02*
X003582Y003317D01*
X003582Y003258D02*
X004257Y003258D01*
X004257Y003200D02*
X003582Y003200D01*
X003582Y003141D02*
X004257Y003141D01*
X004257Y003083D02*
X003582Y003083D01*
X003582Y003024D02*
X004257Y003024D01*
X004257Y002966D02*
X003582Y002966D01*
X003645Y002907D02*
X004257Y002907D01*
X004257Y002849D02*
X003698Y002849D01*
X003677Y002882D02*
X003677Y002882D01*
X003735Y002790D02*
X004275Y002790D01*
X004275Y002732D02*
X003772Y002732D01*
X003791Y002673D02*
X004232Y002673D01*
X004225Y002615D02*
X003805Y002615D01*
X003819Y002556D02*
X004225Y002556D01*
X004225Y002498D02*
X003821Y002498D01*
X003825Y002532D02*
X003825Y002532D01*
X003817Y002439D02*
X004225Y002439D01*
X004225Y002381D02*
X003817Y002381D01*
X003817Y002322D02*
X004225Y002322D01*
X004225Y002264D02*
X003817Y002264D01*
X003817Y002205D02*
X004240Y002205D01*
X004526Y002147D02*
X008157Y002147D01*
X008126Y002088D02*
X006927Y002088D01*
X006927Y002030D02*
X008097Y002030D01*
X008076Y002030D02*
X006913Y002030D01*
X006949Y001971D02*
X008073Y001971D01*
X008051Y001971D02*
X006949Y001971D01*
X006949Y001913D02*
X008052Y001913D01*
X008032Y001913D02*
X006949Y001913D01*
X006949Y001854D02*
X008052Y001854D01*
X008032Y001854D02*
X006949Y001854D01*
X006949Y001796D02*
X008052Y001796D01*
X008032Y001796D02*
X006949Y001796D01*
X006949Y001737D02*
X008056Y001737D01*
X008034Y001737D02*
X006949Y001737D01*
X006949Y001679D02*
X008080Y001679D01*
X008058Y001679D02*
X006949Y001679D01*
X006949Y001620D02*
X008104Y001620D01*
X008082Y001620D02*
X006949Y001620D01*
X006949Y001562D02*
X008143Y001562D01*
X008115Y001562D02*
X006949Y001562D01*
X006949Y001503D02*
X008201Y001503D01*
X008173Y001503D02*
X006949Y001503D01*
X006941Y001445D02*
X008288Y001445D01*
X008236Y001445D02*
X006941Y001445D01*
X006927Y001386D02*
X008487Y001386D01*
X008487Y001328D02*
X006927Y001328D01*
X006927Y001269D02*
X008487Y001269D01*
X008487Y001211D02*
X006927Y001211D01*
X006927Y001152D02*
X008487Y001152D01*
X008487Y001094D02*
X006928Y001094D01*
X006928Y001035D02*
X008487Y001035D01*
X008475Y000977D02*
X006928Y000977D01*
X006928Y000918D02*
X008416Y000918D01*
X008358Y000860D02*
X006928Y000860D01*
X006928Y000801D02*
X008299Y000801D01*
X008241Y000743D02*
X006928Y000743D01*
X006928Y000684D02*
X008182Y000684D01*
X008124Y000626D02*
X006928Y000626D01*
X006928Y000567D02*
X008065Y000567D01*
X008007Y000509D02*
X006928Y000509D01*
X006928Y000450D02*
X007948Y000450D01*
X008387Y001211D02*
X006832Y001211D01*
X006832Y001269D02*
X008387Y001269D01*
X008387Y001328D02*
X006832Y001328D01*
X006883Y001386D02*
X008377Y001386D01*
X008100Y002088D02*
X006855Y002088D01*
X006930Y002205D02*
X006445Y002205D01*
X006470Y002264D02*
X006905Y002264D01*
X006905Y002322D02*
X006470Y002322D01*
X006470Y002381D02*
X006905Y002381D01*
X006905Y002439D02*
X006470Y002439D01*
X006470Y002498D02*
X006905Y002498D01*
X006905Y002556D02*
X006470Y002556D01*
X006470Y002615D02*
X006905Y002615D01*
X006905Y002673D02*
X006470Y002673D01*
X006511Y002732D02*
X006961Y002732D01*
X006793Y002790D02*
X007297Y002790D01*
X007407Y002849D02*
X006819Y002849D01*
X006819Y002907D02*
X007407Y002907D01*
X007407Y002966D02*
X006819Y002966D01*
X006819Y003024D02*
X007407Y003024D01*
X007397Y003083D02*
X006819Y003083D01*
X006819Y003141D02*
X007338Y003141D01*
X007317Y003200D02*
X006819Y003200D01*
X006819Y003258D02*
X007315Y003258D01*
X007568Y003492D02*
X007987Y003492D01*
X007987Y003551D02*
X007597Y003551D01*
X007597Y003609D02*
X007987Y003609D01*
X007987Y003668D02*
X007597Y003668D01*
X007597Y003726D02*
X007987Y003726D01*
X007987Y003785D02*
X007597Y003785D01*
X007597Y003843D02*
X007987Y003843D01*
X007987Y003902D02*
X007597Y003902D01*
X007597Y003960D02*
X007987Y003960D01*
X007948Y004019D02*
X007597Y004019D01*
X007597Y004077D02*
X007889Y004077D01*
X007862Y004136D02*
X007597Y004136D01*
X007597Y004194D02*
X007847Y004194D01*
X007847Y004253D02*
X007597Y004253D01*
X007597Y004311D02*
X007863Y004311D01*
X007890Y004370D02*
X007597Y004370D01*
X007597Y004428D02*
X007948Y004428D01*
X007987Y004487D02*
X007597Y004487D01*
X007597Y004545D02*
X007987Y004545D01*
X007987Y004604D02*
X007597Y004604D01*
X007597Y004662D02*
X007987Y004662D01*
X007987Y004721D02*
X007597Y004721D01*
X007597Y004779D02*
X007987Y004779D01*
X007987Y004838D02*
X007597Y004838D01*
X007597Y004896D02*
X007987Y004896D01*
X007987Y004955D02*
X007597Y004955D01*
X007597Y005013D02*
X007953Y005013D01*
X007895Y005072D02*
X007597Y005072D01*
X007597Y005130D02*
X007865Y005130D01*
X007847Y005189D02*
X007597Y005189D01*
X007597Y005247D02*
X007847Y005247D01*
X007860Y005306D02*
X007597Y005306D01*
X007597Y005364D02*
X007884Y005364D01*
X007943Y005423D02*
X007597Y005423D01*
X007597Y005481D02*
X007987Y005481D01*
X007987Y005540D02*
X007597Y005540D01*
X007597Y005598D02*
X007987Y005598D01*
X007987Y005657D02*
X007597Y005657D01*
X007597Y005715D02*
X007987Y005715D01*
X007987Y005774D02*
X007597Y005774D01*
X007597Y005832D02*
X007951Y005832D01*
X007894Y005891D02*
X007597Y005891D01*
X007597Y005949D02*
X007837Y005949D01*
X007780Y006008D02*
X007680Y006008D01*
X007257Y006008D02*
X006595Y006008D01*
X006651Y006066D02*
X007256Y006066D01*
X006650Y005832D02*
X006561Y005832D01*
X006619Y005774D02*
X006629Y005774D01*
X006317Y005013D02*
X004570Y005013D01*
X004669Y004955D02*
X006317Y004955D01*
X006317Y004896D02*
X004716Y004896D01*
X004741Y004838D02*
X006317Y004838D01*
X006317Y004779D02*
X004747Y004779D01*
X004746Y004721D02*
X006317Y004721D01*
X006317Y004662D02*
X004721Y004662D01*
X004681Y004604D02*
X006304Y004604D01*
X006262Y004545D02*
X004667Y004545D01*
X004667Y004487D02*
X006238Y004487D01*
X006237Y004428D02*
X004667Y004428D01*
X004667Y004370D02*
X006242Y004370D01*
X006267Y004311D02*
X004667Y004311D01*
X004667Y004253D02*
X006314Y004253D01*
X006410Y004194D02*
X004667Y004194D01*
X004667Y004136D02*
X005336Y004136D01*
X005277Y004077D02*
X004667Y004077D01*
X004712Y004019D02*
X005246Y004019D01*
X005227Y003960D02*
X005180Y003960D01*
X005617Y004136D02*
X007257Y004136D01*
X007257Y004140D02*
X007257Y004140D01*
X007257Y004077D02*
X006363Y004077D01*
X006425Y004019D02*
X007257Y004019D01*
X007257Y003960D02*
X006457Y003960D01*
X006477Y003902D02*
X007257Y003902D01*
X007257Y003843D02*
X006649Y003843D01*
X006719Y003785D02*
X007257Y003785D01*
X007257Y003726D02*
X006755Y003726D01*
X006639Y004194D02*
X006563Y004194D01*
X006090Y004077D02*
X006016Y004077D01*
X005697Y004077D02*
X005676Y004077D01*
X004978Y003375D02*
X004890Y003375D01*
X004890Y003317D02*
X005039Y003317D01*
X005083Y003258D02*
X004890Y003258D01*
X004890Y003200D02*
X005083Y003200D01*
X005083Y003141D02*
X004890Y003141D01*
X004890Y003083D02*
X005083Y003083D01*
X005083Y003024D02*
X004890Y003024D01*
X004890Y002966D02*
X005083Y002966D01*
X005083Y002907D02*
X004890Y002907D01*
X004890Y002849D02*
X005083Y002849D01*
X005110Y002790D02*
X004864Y002790D01*
X005071Y002673D02*
X005975Y002673D01*
X005975Y002615D02*
X005079Y002615D01*
X005079Y002556D02*
X005975Y002556D01*
X005975Y002498D02*
X005079Y002498D01*
X005079Y002439D02*
X005975Y002439D01*
X005975Y002381D02*
X005079Y002381D01*
X005079Y002322D02*
X005975Y002322D01*
X005975Y002264D02*
X005079Y002264D01*
X005063Y002205D02*
X006000Y002205D01*
X006191Y002030D02*
X004628Y002030D01*
X004628Y001971D02*
X006155Y001971D01*
X006249Y002088D02*
X004584Y002088D01*
X003937Y002147D02*
X003856Y002147D01*
X004595Y002732D02*
X006031Y002732D01*
X007400Y002322D02*
X008198Y002322D01*
X008256Y002264D02*
X007400Y002264D01*
X007375Y002205D02*
X008215Y002205D01*
X008139Y002381D02*
X007829Y002381D01*
X007864Y002439D02*
X008081Y002439D01*
X008022Y002498D02*
X007864Y002498D01*
X007864Y002556D02*
X007987Y002556D01*
X007987Y002615D02*
X007864Y002615D01*
X007864Y002673D02*
X007987Y002673D01*
X007987Y002732D02*
X007864Y002732D01*
X007856Y002790D02*
X007987Y002790D01*
X007987Y002849D02*
X007747Y002849D01*
X007747Y002907D02*
X007987Y002907D01*
X007987Y002966D02*
X007747Y002966D01*
X007747Y003024D02*
X007942Y003024D01*
X007884Y003083D02*
X007747Y003083D01*
X007747Y003141D02*
X007860Y003141D01*
X007847Y003200D02*
X007747Y003200D01*
X007702Y003258D02*
X007847Y003258D01*
X007865Y003317D02*
X007658Y003317D01*
X007657Y003375D02*
X007895Y003375D01*
X007954Y003434D02*
X007629Y003434D01*
X004465Y003785D02*
X004169Y003785D01*
X004070Y003843D02*
X004406Y003843D01*
X002652Y006008D02*
X001987Y006008D01*
X001987Y006066D02*
X002652Y006066D01*
X002661Y006125D02*
X001987Y006125D01*
X001987Y006183D02*
X002652Y006183D01*
X002652Y006242D02*
X001987Y006242D01*
X001987Y006300D02*
X002652Y006300D01*
X002652Y006359D02*
X001987Y006359D01*
X001987Y006417D02*
X002652Y006417D01*
X002652Y006476D02*
X001987Y006476D01*
X001987Y006534D02*
X002652Y006534D01*
X002652Y006593D02*
X001987Y006593D01*
X001987Y006651D02*
X002666Y006651D01*
X002652Y006710D02*
X001987Y006710D01*
X001987Y006768D02*
X002652Y006768D01*
X002652Y006827D02*
X001987Y006827D01*
X001987Y006885D02*
X002652Y006885D01*
X002436Y006944D02*
X001987Y006944D01*
X001987Y007002D02*
X002377Y007002D01*
X002319Y007061D02*
X001987Y007061D01*
X001987Y007119D02*
X002260Y007119D01*
X002227Y007178D02*
X001987Y007178D01*
X001987Y007236D02*
X002227Y007236D01*
X002227Y007295D02*
X002064Y007295D01*
X002160Y007353D02*
X002227Y007353D01*
X002227Y007412D02*
X002207Y007412D01*
X002567Y007412D02*
X003154Y007412D01*
X003154Y007470D02*
X002567Y007470D01*
X002567Y007529D02*
X003154Y007529D01*
X003154Y007587D02*
X002567Y007587D01*
X002567Y007646D02*
X003154Y007646D01*
X003154Y007688D02*
X003154Y007253D01*
X002717Y007253D01*
X002708Y007244D01*
X002616Y007244D01*
X002567Y007293D01*
X002567Y008463D01*
X002870Y008463D01*
X002937Y008397D01*
X002937Y007877D01*
X003030Y007783D01*
X003059Y007783D01*
X003154Y007688D01*
X003138Y007704D02*
X002567Y007704D01*
X002567Y007763D02*
X003079Y007763D01*
X002992Y007821D02*
X002567Y007821D01*
X002567Y007880D02*
X002937Y007880D01*
X002937Y007938D02*
X002567Y007938D01*
X002567Y007997D02*
X002937Y007997D01*
X002937Y008055D02*
X002567Y008055D01*
X002567Y008114D02*
X002937Y008114D01*
X002937Y008172D02*
X002567Y008172D01*
X002567Y008231D02*
X002937Y008231D01*
X002937Y008289D02*
X002567Y008289D01*
X002567Y008348D02*
X002937Y008348D01*
X002927Y008406D02*
X002567Y008406D01*
X003097Y007943D02*
X003333Y007707D01*
X003333Y007468D01*
X003154Y007353D02*
X002567Y007353D01*
X002567Y007295D02*
X003154Y007295D01*
X003609Y007468D02*
X003609Y007741D01*
X003557Y007793D01*
X003467Y007793D01*
X003297Y007963D01*
X003457Y008315D02*
X003457Y008331D01*
X003859Y008331D01*
X004279Y008331D01*
X004344Y008396D01*
X004344Y008762D01*
X004279Y008827D01*
X004119Y008827D01*
X004022Y008924D01*
X004097Y008893D01*
X004196Y008893D01*
X004288Y008931D01*
X004306Y008949D01*
X004306Y008941D01*
X004370Y008877D01*
X004894Y008877D01*
X004959Y008941D01*
X004959Y009113D01*
X005014Y009113D01*
X005014Y008941D01*
X005079Y008877D01*
X005603Y008877D01*
X005610Y008883D01*
X005614Y008879D01*
X006059Y008879D01*
X006124Y008944D01*
X006124Y009056D01*
X006154Y009078D01*
X006167Y009073D01*
X006266Y009073D01*
X006358Y009111D01*
X006360Y009113D01*
X006444Y009113D01*
X006444Y008803D01*
X006508Y008739D01*
X006561Y008739D01*
X006616Y008683D01*
X006703Y008596D01*
X006703Y008260D01*
X006763Y008200D01*
X006648Y008200D01*
X006648Y008233D01*
X006583Y008297D01*
X006177Y008297D01*
X006152Y008272D01*
X006109Y008315D01*
X005664Y008315D01*
X005657Y008308D01*
X005649Y008315D01*
X005204Y008315D01*
X005187Y008298D01*
X005169Y008315D01*
X004724Y008315D01*
X004717Y008308D01*
X004709Y008315D01*
X003457Y008315D01*
X004072Y008874D02*
X006444Y008874D01*
X006444Y008816D02*
X004291Y008816D01*
X004344Y008757D02*
X006490Y008757D01*
X006601Y008699D02*
X004344Y008699D01*
X004344Y008640D02*
X006659Y008640D01*
X006703Y008582D02*
X004344Y008582D01*
X004344Y008523D02*
X006703Y008523D01*
X006703Y008465D02*
X004344Y008465D01*
X004344Y008406D02*
X006703Y008406D01*
X006703Y008348D02*
X004296Y008348D01*
X004290Y008933D02*
X004314Y008933D01*
X004950Y008933D02*
X005023Y008933D01*
X005014Y008991D02*
X004959Y008991D01*
X004959Y009050D02*
X005014Y009050D01*
X005014Y009108D02*
X004959Y009108D01*
X006113Y008933D02*
X006444Y008933D01*
X006444Y008991D02*
X006124Y008991D01*
X006124Y009050D02*
X006444Y009050D01*
X006444Y009108D02*
X006351Y009108D01*
X006169Y008289D02*
X006135Y008289D01*
X006592Y008289D02*
X006703Y008289D01*
X006733Y008231D02*
X006648Y008231D01*
X006648Y007860D02*
X007256Y007860D01*
X007257Y007859D01*
X007294Y007859D01*
X007294Y007850D01*
X007359Y007786D01*
X007804Y007786D01*
X007807Y007788D01*
X007807Y007767D01*
X007804Y007770D01*
X007359Y007770D01*
X007294Y007705D01*
X007294Y007339D01*
X007359Y007274D01*
X007804Y007274D01*
X007869Y007339D01*
X007869Y007362D01*
X007902Y007362D01*
X007987Y007447D01*
X007987Y006893D01*
X007917Y006963D01*
X007757Y007123D01*
X007532Y007123D01*
X007313Y007218D01*
X007286Y007244D01*
X007266Y007244D01*
X007257Y007253D01*
X007230Y007253D01*
X007218Y007258D01*
X007205Y007253D01*
X006819Y007253D01*
X006819Y007750D01*
X006755Y007814D01*
X006635Y007814D01*
X006648Y007827D01*
X006648Y007860D01*
X006642Y007821D02*
X007324Y007821D01*
X007352Y007763D02*
X006806Y007763D01*
X006819Y007704D02*
X007294Y007704D01*
X007294Y007646D02*
X006819Y007646D01*
X006819Y007587D02*
X007294Y007587D01*
X007294Y007529D02*
X006819Y007529D01*
X006819Y007470D02*
X007294Y007470D01*
X007294Y007412D02*
X006819Y007412D01*
X006819Y007353D02*
X007294Y007353D01*
X007338Y007295D02*
X006819Y007295D01*
X007294Y007236D02*
X007987Y007236D01*
X007987Y007178D02*
X007405Y007178D01*
X007761Y007119D02*
X007987Y007119D01*
X007987Y007061D02*
X007820Y007061D01*
X007878Y007002D02*
X007987Y007002D01*
X007987Y006944D02*
X007937Y006944D01*
X007987Y007295D02*
X007825Y007295D01*
X007869Y007353D02*
X007987Y007353D01*
X007987Y007412D02*
X007951Y007412D01*
X006119Y007821D02*
X006111Y007821D01*
X005923Y007763D02*
X005708Y007763D01*
X005717Y007704D02*
X005910Y007704D01*
X005910Y007646D02*
X005717Y007646D01*
X005717Y007587D02*
X005910Y007587D01*
X005910Y007529D02*
X005717Y007529D01*
X005717Y007470D02*
X005910Y007470D01*
X005910Y007412D02*
X005717Y007412D01*
X005717Y007353D02*
X005910Y007353D01*
X005910Y007295D02*
X005717Y007295D01*
X005717Y007236D02*
X005891Y007236D01*
X005846Y007178D02*
X005708Y007178D01*
X005767Y007119D02*
X004196Y007119D01*
X004303Y007061D02*
X005661Y007061D01*
X005610Y007002D02*
X005201Y007002D01*
X005327Y006944D02*
X005585Y006944D01*
X005577Y006885D02*
X005385Y006885D01*
X005444Y006827D02*
X005577Y006827D01*
X005255Y006534D02*
X004679Y006534D01*
X004738Y006476D02*
X005314Y006476D01*
X004915Y006581D02*
X004845Y006651D01*
X004821Y006710D02*
X004391Y006710D01*
X004364Y006768D02*
X004807Y006768D01*
X004807Y006827D02*
X004387Y006827D01*
X004387Y006885D02*
X004824Y006885D01*
X004854Y006944D02*
X004378Y006944D01*
X004354Y007002D02*
X004912Y007002D01*
X004881Y007178D02*
X005092Y007178D01*
X005083Y007236D02*
X004890Y007236D01*
X004890Y007295D02*
X005083Y007295D01*
X005083Y007353D02*
X004890Y007353D01*
X004890Y007412D02*
X005083Y007412D01*
X005083Y007470D02*
X004890Y007470D01*
X004890Y007529D02*
X005083Y007529D01*
X005083Y007587D02*
X004890Y007587D01*
X004890Y007646D02*
X005083Y007646D01*
X005083Y007704D02*
X004890Y007704D01*
X004881Y007763D02*
X005096Y007763D01*
X005171Y007821D02*
X005202Y007821D01*
X004541Y007763D02*
X004326Y007763D01*
X004339Y007704D02*
X004532Y007704D01*
X004532Y007646D02*
X004339Y007646D01*
X004339Y007587D02*
X004532Y007587D01*
X004532Y007529D02*
X004339Y007529D01*
X004339Y007470D02*
X004532Y007470D01*
X004532Y007412D02*
X004339Y007412D01*
X004339Y007353D02*
X004532Y007353D01*
X004532Y007295D02*
X004339Y007295D01*
X004339Y007236D02*
X004532Y007236D01*
X004541Y007178D02*
X004330Y007178D01*
D37*
X004711Y007468D02*
X004711Y008067D01*
X005427Y008067D02*
X005538Y008058D01*
X005538Y007468D01*
X005262Y007468D01*
X005827Y006873D02*
X006089Y007215D01*
X006089Y007468D01*
X006365Y007468D02*
X006367Y007236D01*
X006367Y007223D01*
X006187Y006973D01*
X006187Y006873D01*
X006287Y006613D02*
X006377Y006523D01*
X006975Y006523D01*
X006975Y006248D02*
X006481Y006248D01*
X006437Y006203D01*
X006287Y006613D02*
X005417Y006613D01*
X005237Y006793D01*
X005057Y006793D01*
X004527Y006333D02*
X004287Y006573D01*
X003757Y006573D01*
X003707Y006523D01*
X002999Y006523D01*
X002998Y006523D01*
X002998Y006248D02*
X003532Y006248D01*
X003537Y006243D01*
X003347Y005973D02*
X003000Y005973D01*
X002998Y005972D01*
X002998Y005696D02*
X002570Y005696D01*
X002567Y005693D01*
X002464Y005421D02*
X002297Y005253D01*
X002297Y004163D01*
X002337Y004103D01*
X002337Y003683D01*
X001487Y002833D01*
X002077Y002873D02*
X002077Y002423D01*
X001487Y001833D01*
X002077Y002873D02*
X002567Y003363D01*
X002567Y005153D01*
X002464Y005421D02*
X002998Y005421D01*
X002998Y005145D02*
X003001Y005143D01*
X003317Y005143D01*
X003567Y004893D01*
X003567Y004803D01*
X004497Y004773D02*
X004497Y003993D01*
X004667Y003823D01*
X005077Y003823D01*
X005538Y003362D01*
X005538Y003098D01*
X005262Y003098D02*
X005262Y003337D01*
X004987Y003603D01*
X003997Y003603D01*
X003884Y003098D02*
X003609Y003098D01*
X003333Y002947D02*
X003332Y002915D01*
X003335Y002884D01*
X003342Y002853D01*
X003353Y002824D01*
X003366Y002795D01*
X003384Y002769D01*
X003404Y002745D01*
X003426Y002723D01*
X003333Y002947D02*
X003333Y003098D01*
X004435Y003098D02*
X004711Y003098D01*
X005477Y003723D02*
X005477Y003923D01*
X005477Y003723D02*
X005813Y003386D01*
X005813Y003098D01*
X006089Y003098D02*
X006089Y003281D01*
X006087Y003343D01*
X006077Y003373D01*
X005997Y003523D01*
X005857Y003663D01*
X005857Y003883D01*
X006227Y003863D02*
X006227Y003573D01*
X006365Y003325D01*
X006365Y003098D01*
X006640Y003098D02*
X006640Y003350D01*
X006567Y003433D01*
X006567Y003493D01*
X006527Y003623D01*
X006975Y003492D02*
X007308Y003492D01*
X007427Y003610D01*
X007427Y006073D01*
X007547Y006223D01*
X007847Y006183D02*
X008187Y005833D01*
X008487Y005833D01*
X007847Y006183D02*
X007847Y006793D01*
X007687Y006953D01*
X007497Y006953D01*
X007215Y007074D01*
X006975Y007074D01*
X006975Y006799D02*
X007261Y006799D01*
X007557Y006603D01*
X006537Y006983D02*
X006537Y007083D01*
X006637Y007223D01*
X006637Y007235D01*
X006640Y007468D01*
X006627Y007455D01*
X006380Y008030D02*
X007325Y008030D01*
X007581Y008034D01*
X007463Y008483D02*
X007719Y008483D01*
X007856Y008485D01*
X006951Y008483D02*
X006947Y008593D01*
X006687Y008853D01*
X006687Y009090D01*
X006682Y009095D01*
X006682Y009398D01*
X006797Y009513D01*
X006997Y009513D01*
X007887Y010403D01*
X007887Y011233D01*
X008487Y011833D01*
X007130Y011050D02*
X007130Y010974D01*
X007102Y010966D01*
X007066Y010945D01*
X007036Y010916D01*
X007015Y010879D01*
X007004Y010838D01*
X007004Y010575D01*
X007288Y010575D01*
X007288Y010567D01*
X007296Y010567D01*
X007296Y010165D01*
X007357Y010165D01*
X007357Y010128D01*
X006922Y009693D01*
X006722Y009693D01*
X006607Y009578D01*
X006502Y009473D01*
X006502Y009459D01*
X006486Y009443D01*
X006448Y009443D01*
X006437Y009470D01*
X006364Y009543D01*
X006268Y009583D01*
X006227Y009583D01*
X006197Y009613D01*
X006197Y010153D01*
X006288Y010153D01*
X006384Y010193D01*
X006450Y010259D01*
X006504Y010205D01*
X006859Y010205D01*
X006929Y010275D01*
X006929Y010867D01*
X006859Y010937D01*
X006504Y010937D01*
X006434Y010867D01*
X006434Y010584D01*
X006384Y010633D01*
X006288Y010673D01*
X006217Y010673D01*
X006181Y010709D01*
X006134Y010709D01*
X006134Y010726D01*
X006064Y010797D01*
X005710Y010797D01*
X005740Y010827D01*
X005740Y011033D01*
X006011Y011033D01*
X006048Y011070D01*
X006093Y011070D01*
X006096Y011073D01*
X006100Y011071D01*
X006141Y011060D01*
X006417Y011060D01*
X006417Y011573D01*
X006537Y011573D01*
X006537Y011060D01*
X006813Y011060D01*
X006853Y011071D01*
X006857Y011073D01*
X006860Y011070D01*
X006906Y011070D01*
X006937Y011039D01*
X007119Y011039D01*
X007130Y011050D01*
X007130Y010998D02*
X005740Y010998D01*
X005740Y010880D02*
X006446Y010880D01*
X006434Y010761D02*
X006099Y010761D01*
X006362Y010643D02*
X006434Y010643D01*
X006417Y011117D02*
X006537Y011117D01*
X006537Y011235D02*
X006417Y011235D01*
X006417Y011354D02*
X006537Y011354D01*
X006537Y011472D02*
X006417Y011472D01*
X006417Y011573D02*
X006204Y011573D01*
X006204Y011633D01*
X005925Y011633D01*
X005925Y011633D01*
X006204Y011633D01*
X006204Y011693D01*
X006417Y011693D01*
X006417Y012206D01*
X006365Y012206D01*
X006434Y012275D01*
X006453Y012256D01*
X006828Y012256D01*
X006873Y012301D01*
X006887Y012278D01*
X006917Y012248D01*
X006953Y012227D01*
X006994Y012216D01*
X007019Y012216D01*
X006998Y012196D01*
X006860Y012196D01*
X006857Y012193D01*
X006853Y012196D01*
X006813Y012206D01*
X006537Y012206D01*
X006537Y011693D01*
X006417Y011693D01*
X006417Y011573D01*
X006417Y011591D02*
X006204Y011591D01*
X006417Y011709D02*
X006537Y011709D01*
X006537Y011828D02*
X006417Y011828D01*
X006417Y011946D02*
X006537Y011946D01*
X006537Y012065D02*
X006417Y012065D01*
X006417Y012183D02*
X006537Y012183D01*
X005672Y011413D02*
X005658Y011390D01*
X005647Y011349D01*
X005647Y011283D01*
X005641Y011284D01*
X005459Y011284D01*
X005459Y011002D01*
X005455Y011002D01*
X005455Y011284D01*
X005272Y011284D01*
X005253Y011279D01*
X005253Y011385D01*
X004915Y011385D01*
X004915Y011501D01*
X005253Y011501D01*
X005253Y011662D01*
X005297Y011662D01*
X005417Y011542D01*
X005546Y011413D01*
X005672Y011413D01*
X005649Y011354D02*
X005253Y011354D01*
X005455Y011235D02*
X005459Y011235D01*
X005455Y011117D02*
X005459Y011117D01*
X005487Y011472D02*
X004915Y011472D01*
X004915Y011501D02*
X004798Y011501D01*
X004798Y011385D01*
X004460Y011385D01*
X004460Y011130D01*
X004357Y011233D01*
X004357Y012073D01*
X005173Y012073D01*
X005173Y011975D01*
X005155Y011986D01*
X005114Y011997D01*
X004915Y011997D01*
X004915Y011501D01*
X004915Y011591D02*
X004798Y011591D01*
X004798Y011501D02*
X004798Y011997D01*
X004599Y011997D01*
X004559Y011986D01*
X004522Y011965D01*
X004492Y011935D01*
X004471Y011899D01*
X004460Y011858D01*
X004460Y011501D01*
X004798Y011501D01*
X004798Y011472D02*
X004357Y011472D01*
X004357Y011354D02*
X004460Y011354D01*
X004460Y011235D02*
X004357Y011235D01*
X004117Y011235D02*
X003993Y011235D01*
X003993Y011117D02*
X004117Y011117D01*
X004117Y011113D02*
X004085Y011113D01*
X003993Y011075D01*
X003993Y011385D01*
X003655Y011385D01*
X003655Y011501D01*
X003993Y011501D01*
X003993Y011858D01*
X003982Y011899D01*
X003961Y011935D01*
X003931Y011965D01*
X003895Y011986D01*
X003854Y011997D01*
X003655Y011997D01*
X003655Y011501D01*
X003539Y011501D01*
X003539Y011997D01*
X003434Y011997D01*
X003434Y012065D01*
X003423Y012106D01*
X003402Y012142D01*
X003372Y012172D01*
X003335Y012193D01*
X003295Y012204D01*
X003119Y012204D01*
X003117Y012243D01*
X003165Y012292D01*
X003273Y012292D01*
X003374Y012292D01*
X003376Y012286D01*
X003449Y012213D01*
X003545Y012173D01*
X003648Y012173D01*
X003744Y012213D01*
X003817Y012286D01*
X003820Y012293D01*
X004117Y012293D01*
X004117Y011113D01*
X004117Y011354D02*
X003993Y011354D01*
X004117Y011472D02*
X003655Y011472D01*
X003655Y011385D02*
X003655Y010889D01*
X003854Y010889D01*
X003877Y010895D01*
X003877Y010801D01*
X003879Y010795D01*
X003788Y010833D01*
X003685Y010833D01*
X003589Y010793D01*
X003559Y010763D01*
X003540Y010763D01*
X003540Y010867D01*
X003517Y010889D01*
X003539Y010889D01*
X003539Y011385D01*
X003655Y011385D01*
X003655Y011354D02*
X003539Y011354D01*
X003539Y011235D02*
X003655Y011235D01*
X003655Y011117D02*
X003539Y011117D01*
X003539Y010998D02*
X003655Y010998D01*
X003527Y010880D02*
X003877Y010880D01*
X004701Y010889D02*
X004798Y010889D01*
X004798Y011385D01*
X004915Y011385D01*
X004915Y010889D01*
X005114Y010889D01*
X005133Y010895D01*
X005133Y010855D01*
X005144Y010815D01*
X005153Y010800D01*
X005075Y010800D01*
X005004Y010729D01*
X005004Y010473D01*
X004969Y010473D01*
X004969Y010729D01*
X004899Y010800D01*
X004791Y010800D01*
X004703Y010887D01*
X004701Y010889D01*
X004711Y010880D02*
X005133Y010880D01*
X005036Y010761D02*
X004937Y010761D01*
X004969Y010643D02*
X005004Y010643D01*
X005004Y010524D02*
X004969Y010524D01*
X004915Y010998D02*
X004798Y010998D01*
X004798Y011117D02*
X004915Y011117D01*
X004915Y011235D02*
X004798Y011235D01*
X004798Y011354D02*
X004915Y011354D01*
X005253Y011591D02*
X005368Y011591D01*
X004915Y011709D02*
X004798Y011709D01*
X004798Y011828D02*
X004915Y011828D01*
X004915Y011946D02*
X004798Y011946D01*
X004503Y011946D02*
X004357Y011946D01*
X004357Y011828D02*
X004460Y011828D01*
X004460Y011709D02*
X004357Y011709D01*
X004357Y011591D02*
X004460Y011591D01*
X004117Y011591D02*
X003993Y011591D01*
X003993Y011709D02*
X004117Y011709D01*
X004117Y011828D02*
X003993Y011828D01*
X003950Y011946D02*
X004117Y011946D01*
X004117Y012065D02*
X003434Y012065D01*
X003353Y012183D02*
X003521Y012183D01*
X003673Y012183D02*
X004117Y012183D01*
X004357Y012065D02*
X005173Y012065D01*
X004475Y012621D02*
X004327Y012473D01*
X003637Y012473D01*
X003597Y012433D01*
X003273Y012312D02*
X003273Y012292D01*
X003273Y012312D01*
X003273Y012312D01*
X003273Y012302D02*
X003273Y012302D01*
X003539Y011946D02*
X003655Y011946D01*
X003655Y011828D02*
X003539Y011828D01*
X003539Y011709D02*
X003655Y011709D01*
X003655Y011591D02*
X003539Y011591D01*
X002617Y011063D02*
X002617Y010963D01*
X002687Y010893D01*
X002687Y010576D01*
X002682Y010571D01*
X002347Y009893D02*
X002187Y009733D01*
X002187Y008623D01*
X002397Y008413D01*
X002397Y007223D01*
X002545Y007074D01*
X002998Y007074D01*
X003347Y005973D02*
X003567Y005753D01*
X003977Y005753D01*
X006407Y005633D02*
X006487Y005553D01*
X006487Y004433D01*
X007308Y003492D02*
X007487Y003333D01*
X007487Y003233D01*
X007577Y003143D01*
X007577Y002599D01*
X008097Y003223D02*
X008487Y002833D01*
X008487Y003833D02*
X008097Y004223D01*
X008487Y004833D02*
X008097Y005223D01*
X005887Y008067D02*
X005427Y008067D01*
X006442Y009458D02*
X006501Y009458D01*
X006605Y009576D02*
X006285Y009576D01*
X006197Y009695D02*
X006924Y009695D01*
X007042Y009813D02*
X006197Y009813D01*
X006197Y009932D02*
X007161Y009932D01*
X007279Y010050D02*
X006197Y010050D01*
X006326Y010169D02*
X007130Y010169D01*
X007143Y010165D02*
X007288Y010165D01*
X007288Y010567D01*
X007004Y010567D01*
X007004Y010304D01*
X007015Y010263D01*
X007036Y010227D01*
X007066Y010197D01*
X007102Y010176D01*
X007143Y010165D01*
X007288Y010169D02*
X007296Y010169D01*
X007288Y010287D02*
X007296Y010287D01*
X007288Y010406D02*
X007296Y010406D01*
X007288Y010524D02*
X007296Y010524D01*
X007004Y010524D02*
X006929Y010524D01*
X006929Y010406D02*
X007004Y010406D01*
X007008Y010287D02*
X006929Y010287D01*
X006929Y010643D02*
X007004Y010643D01*
X007004Y010761D02*
X006929Y010761D01*
X006917Y010880D02*
X007015Y010880D01*
X004475Y012621D02*
X004475Y012780D01*
X003344Y001943D02*
X003562Y001773D01*
D38*
X003537Y001903D02*
X003537Y002463D01*
X003538Y002496D01*
X003536Y002529D01*
X003530Y002561D01*
X003521Y002592D01*
X003508Y002622D01*
X003492Y002651D01*
X003473Y002677D01*
X003451Y002702D01*
X003427Y002723D01*
X004231Y001773D02*
X004236Y001752D01*
X004244Y001732D01*
X004255Y001713D01*
X004270Y001697D01*
X004287Y001683D01*
X006487Y001683D01*
X006552Y001723D01*
X006552Y000734D01*
X007617Y010573D02*
X007617Y010833D01*
X007487Y010963D01*
X007487Y011188D01*
X007028Y011259D02*
X007028Y011633D01*
X007217Y011633D01*
X007347Y011763D01*
X007487Y011858D02*
X007651Y011858D01*
X007687Y011893D01*
X007947Y012213D02*
X007947Y013503D01*
X007830Y013620D01*
X007579Y013620D01*
X006652Y013688D02*
X006127Y013163D01*
X006127Y012873D01*
X005807Y012553D01*
X005577Y012553D01*
X005457Y011906D02*
X005457Y011813D01*
X005637Y011633D01*
X005925Y011633D01*
X006477Y011633D01*
X005920Y011253D02*
X005497Y011253D01*
X005457Y011213D02*
X005457Y011000D01*
X005457Y011313D02*
X005327Y011443D01*
X004857Y011443D01*
X003597Y011833D02*
X003082Y011833D01*
X003077Y011828D01*
X002892Y011828D01*
X002807Y011913D01*
X002621Y011913D01*
X002617Y011397D02*
X002617Y011063D01*
X002981Y011063D01*
D39*
X003077Y011158D01*
X003597Y011443D02*
X003907Y011443D01*
X004632Y010717D01*
X004632Y010404D01*
X004291Y009999D02*
X004637Y009653D01*
X004637Y009267D01*
X004632Y009262D01*
X004147Y009143D02*
X004147Y009547D01*
X004291Y009999D02*
X004147Y010059D01*
X003837Y010283D02*
X004117Y010563D01*
X004117Y010833D01*
X004137Y010853D01*
X003737Y010573D02*
X003637Y010433D01*
X003637Y008579D01*
X003837Y008883D02*
X003837Y010283D01*
X002682Y010571D02*
X002680Y010573D01*
X002377Y010573D01*
X002097Y010363D02*
X002257Y010203D01*
X002467Y010203D01*
X002637Y010033D01*
X002637Y009723D01*
X002397Y009493D01*
X002397Y008753D01*
X002527Y008623D01*
X002937Y008623D01*
X003097Y008463D01*
X003097Y007943D01*
X003297Y007963D02*
X003297Y009090D01*
X003292Y009095D01*
X003837Y008883D02*
X004057Y008663D01*
X004057Y008579D01*
X004057Y008067D02*
X004057Y007871D01*
X004157Y007761D01*
X004160Y007468D01*
X003884Y007468D02*
X003884Y007755D01*
X003637Y008003D01*
X003637Y008067D01*
X004487Y008067D02*
X004947Y008067D01*
X004711Y008067D01*
X003777Y007053D02*
X003497Y007053D01*
X003287Y006793D01*
X003004Y006793D01*
X002998Y006799D01*
X003003Y006803D01*
X003777Y007053D02*
X003957Y006873D01*
X004137Y006873D01*
X005837Y009127D02*
X005951Y009127D01*
X006217Y009323D01*
X005837Y009639D02*
X005383Y009639D01*
X005347Y009603D01*
X005347Y009268D01*
X005341Y009262D01*
X005377Y010023D02*
X005341Y010059D01*
X005341Y010404D01*
X005377Y010023D02*
X005833Y010023D01*
X005837Y010027D01*
X006237Y010413D02*
X006111Y010539D01*
X005837Y010539D01*
X005457Y011000D02*
X005457Y011313D01*
X005497Y011253D02*
X005457Y011213D01*
X005920Y011253D02*
X005925Y011259D01*
X006477Y011633D02*
X006477Y012063D01*
X006637Y012223D01*
X007007Y012223D01*
X007157Y012373D01*
X007157Y012549D01*
X007153Y012553D01*
X006897Y012643D02*
X006897Y012913D01*
X006997Y013023D01*
X007153Y013023D01*
X007587Y013049D02*
X007579Y013620D01*
X007577Y013813D01*
X007853Y014089D01*
X006652Y013813D02*
X006652Y013688D01*
X006641Y013023D02*
X006477Y013023D01*
X006367Y012913D01*
X006367Y012783D01*
X005847Y012263D01*
X003797Y012263D01*
X003597Y012063D01*
X003597Y011833D01*
X003597Y011443D01*
X003077Y011828D02*
X003077Y012153D01*
X003273Y012349D01*
X003273Y012649D01*
X002761Y012649D02*
X002761Y012367D01*
X002697Y012303D01*
X002365Y012303D01*
X002097Y012035D01*
X002097Y010363D01*
X002617Y011909D02*
X002621Y011913D01*
X002597Y013233D02*
X001710Y013233D01*
X001577Y013288D01*
X001487Y013288D01*
X001487Y014203D01*
X002597Y014203D01*
X002597Y014169D01*
X002593Y014166D01*
X002593Y013720D01*
X002597Y013717D01*
X002597Y013233D01*
X002597Y013237D02*
X001701Y013237D01*
X001487Y013335D02*
X002597Y013335D01*
X002597Y013434D02*
X001487Y013434D01*
X001487Y013532D02*
X002597Y013532D01*
X002597Y013631D02*
X001487Y013631D01*
X001487Y013729D02*
X002593Y013729D01*
X002593Y013828D02*
X001487Y013828D01*
X001487Y013926D02*
X002593Y013926D01*
X002593Y014025D02*
X001487Y014025D01*
X001487Y014123D02*
X002593Y014123D01*
X002841Y013943D02*
X002847Y013937D01*
X002847Y013743D01*
X003017Y013573D01*
X003017Y013357D01*
X003357Y013503D02*
X003597Y013263D01*
X003987Y013263D01*
X004057Y013313D01*
X004347Y013313D01*
X004437Y013243D01*
X004897Y013243D01*
X004987Y013153D01*
X004987Y012780D01*
X005243Y012780D02*
X005243Y013199D01*
X005287Y013243D01*
X005247Y012784D02*
X005243Y012780D01*
X005497Y012778D02*
X005497Y012633D01*
X005497Y012778D02*
X005498Y012780D01*
X005925Y012007D02*
X006471Y012553D01*
X006641Y012553D01*
X006807Y012553D01*
X006897Y012643D01*
X007487Y011858D02*
X007457Y011828D01*
X007347Y011828D01*
X007347Y011763D01*
X007292Y010573D02*
X007292Y010571D01*
X007292Y010573D02*
X007617Y010573D01*
X006907Y008813D02*
X006947Y008773D01*
X006947Y008593D01*
X007967Y008143D02*
X008217Y008393D01*
X008217Y008563D01*
X008487Y008833D01*
X007967Y008143D02*
X007967Y007653D01*
X007835Y007522D01*
X007581Y007522D01*
X007307Y003493D02*
X006984Y003493D01*
X006975Y003492D01*
X006365Y003098D02*
X006365Y002811D01*
X006223Y002669D01*
X006223Y002453D01*
X007153Y002453D02*
X007298Y002599D01*
X007577Y002599D01*
X004831Y002443D02*
X004473Y002443D01*
X004435Y002480D01*
X004435Y003098D01*
X003537Y001903D02*
X003517Y001803D01*
X003562Y001773D01*
X003357Y013503D02*
X003357Y013869D01*
X003353Y013943D01*
D40*
X004897Y013243D03*
X005287Y013243D03*
X004037Y012133D03*
X003757Y012133D03*
X003597Y012433D03*
X002617Y011063D03*
X002377Y010573D03*
X002347Y009893D03*
X003737Y010573D03*
X004137Y010853D03*
X005697Y011763D03*
X006297Y010973D03*
X005857Y010903D03*
X006237Y010413D03*
X006727Y011043D03*
X007617Y010573D03*
X006217Y009323D03*
X006907Y008813D03*
X007856Y008485D03*
X006537Y006983D03*
X006187Y006873D03*
X005827Y006873D03*
X005057Y006793D03*
X004527Y006333D03*
X004137Y006873D03*
X003537Y006243D03*
X003977Y005753D03*
X003567Y004803D03*
X004497Y004773D03*
X005477Y003923D03*
X005857Y003883D03*
X006227Y003863D03*
X006527Y003623D03*
X006487Y004433D03*
X006407Y005633D03*
X006437Y006203D03*
X007547Y006223D03*
X007557Y006603D03*
X008137Y006433D03*
X008097Y005223D03*
X008097Y004223D03*
X008097Y003223D03*
X003997Y003603D03*
X002057Y003833D03*
X002567Y005153D03*
X002567Y005693D03*
X001987Y007533D03*
X004147Y009143D03*
X006697Y012153D03*
D41*
X005577Y012553D02*
X005497Y012633D01*
D42*
X007687Y011893D02*
X007947Y012153D01*
X007947Y012213D01*
X006552Y000734D02*
X006551Y000733D01*
D43*
X007947Y012213D03*
D44*
X007587Y012323D02*
X007587Y012537D01*
X007587Y012323D02*
X007507Y012243D01*
X007287Y012243D01*
X007028Y012007D01*
M02*
