G75*
%MOIN*%
%OFA0B0*%
%FSLAX24Y24*%
%IPPOS*%
%LPD*%
%AMOC8*
5,1,8,0,0,1.08239X$1,22.5*
%
%ADD10R,0.0434X0.0356*%
%ADD11R,0.0237X0.0611*%
%ADD12R,0.0671X0.0828*%
%ADD13C,0.0316*%
%ADD14C,0.0513*%
%ADD15R,0.0336X0.0572*%
%ADD16R,0.0395X0.0395*%
%ADD17R,0.0356X0.0434*%
%ADD18C,0.0770*%
%ADD19R,0.1130X0.0980*%
%ADD20R,0.0380X0.0580*%
%ADD21R,0.0552X0.0218*%
%ADD22R,0.0474X0.0474*%
%ADD23R,0.0218X0.0552*%
%ADD24C,0.0277*%
%ADD25R,0.0946X0.0493*%
%ADD26R,0.0493X0.0474*%
%ADD27R,0.0474X0.0671*%
%ADD28R,0.0513X0.0474*%
%ADD29R,0.0513X0.0631*%
%ADD30C,0.0010*%
%ADD31R,0.0277X0.0474*%
%ADD32R,0.0474X0.0513*%
%ADD33R,0.0316X0.0218*%
%ADD34R,0.0710X0.0907*%
%ADD35R,0.0407X0.0328*%
%ADD36R,0.0552X0.0867*%
D10*
X007577Y002087D03*
X007577Y002599D03*
X007581Y007522D03*
X007581Y008034D03*
X005887Y008067D03*
X005427Y008067D03*
X004947Y008067D03*
X004487Y008067D03*
X004057Y008067D03*
X003637Y008067D03*
X003637Y008579D03*
X004057Y008579D03*
X004487Y008579D03*
X004947Y008579D03*
X005427Y008579D03*
X005887Y008579D03*
X005837Y009127D03*
X005837Y009639D03*
X005837Y010027D03*
X005837Y010539D03*
X004147Y010059D03*
X004147Y009547D03*
X002617Y011397D03*
X002617Y011909D03*
X007587Y012537D03*
X007587Y013049D03*
D11*
X005498Y012780D03*
X005243Y012780D03*
X004987Y012780D03*
X004731Y012780D03*
X004475Y012780D03*
D12*
X004593Y013829D03*
X005380Y013833D03*
D13*
X005754Y013006D03*
X004219Y013006D03*
D14*
X003894Y013617D02*
X003894Y014050D01*
X006079Y014050D02*
X006079Y013617D01*
D15*
X006682Y010571D03*
X007292Y010571D03*
X007292Y009095D03*
X006682Y009095D03*
X003292Y009095D03*
X002682Y009095D03*
X002682Y010571D03*
X003292Y010571D03*
D16*
X006380Y008620D03*
X006380Y008030D03*
D17*
X006951Y008483D03*
X007463Y008483D03*
X007153Y012553D03*
X007153Y013023D03*
X006641Y013023D03*
X006641Y012553D03*
X003353Y013943D03*
X002841Y013943D03*
X003961Y002443D03*
X004473Y002443D03*
X004831Y002443D03*
X005343Y002443D03*
X005711Y002453D03*
X006223Y002453D03*
X006641Y002453D03*
X007153Y002453D03*
D18*
X001487Y001833D03*
X001487Y002833D03*
X001487Y003833D03*
X001487Y004833D03*
X001487Y005833D03*
X001487Y006833D03*
X001487Y007833D03*
X001487Y008833D03*
X001487Y009833D03*
X001487Y010833D03*
X001487Y011833D03*
X001487Y012833D03*
X008487Y012833D03*
X008487Y011833D03*
X008487Y010833D03*
X008487Y009833D03*
X008487Y008833D03*
X008487Y007833D03*
X008487Y006833D03*
X008487Y005833D03*
X008487Y004833D03*
X008487Y003833D03*
X008487Y002833D03*
X008487Y001833D03*
D19*
X007577Y013813D03*
D20*
X006652Y013813D03*
D21*
X006975Y007074D03*
X006975Y006799D03*
X006975Y006523D03*
X006975Y006248D03*
X006975Y005972D03*
X006975Y005696D03*
X006975Y005421D03*
X006975Y005145D03*
X006975Y004870D03*
X006975Y004594D03*
X006975Y004319D03*
X006975Y004043D03*
X006975Y003767D03*
X006975Y003492D03*
X002998Y003492D03*
X002998Y003767D03*
X002998Y004043D03*
X002998Y004319D03*
X002998Y004594D03*
X002998Y004870D03*
X002998Y005145D03*
X002998Y005421D03*
X002998Y005696D03*
X002998Y005972D03*
X002998Y006248D03*
X002998Y006523D03*
X002998Y006799D03*
X002998Y007074D03*
D22*
X002959Y007507D03*
X004042Y006228D03*
X004987Y006228D03*
X005932Y006228D03*
X005932Y005283D03*
X004987Y005283D03*
X004042Y005283D03*
X004042Y004338D03*
X004987Y004338D03*
X005932Y004338D03*
X007014Y003059D03*
X002959Y003059D03*
X007014Y007507D03*
D23*
X006640Y007468D03*
X006365Y007468D03*
X006089Y007468D03*
X005813Y007468D03*
X005538Y007468D03*
X005262Y007468D03*
X004987Y007468D03*
X004711Y007468D03*
X004435Y007468D03*
X004160Y007468D03*
X003884Y007468D03*
X003609Y007468D03*
X003333Y007468D03*
X003333Y003098D03*
X003609Y003098D03*
X003884Y003098D03*
X004160Y003098D03*
X004435Y003098D03*
X004711Y003098D03*
X004987Y003098D03*
X005262Y003098D03*
X005538Y003098D03*
X005813Y003098D03*
X006089Y003098D03*
X006365Y003098D03*
X006640Y003098D03*
D24*
X003609Y006858D03*
D25*
X002743Y002524D03*
X002743Y001362D03*
D26*
X003344Y001943D03*
D27*
X003402Y000733D03*
X006551Y000733D03*
D28*
X006552Y001723D03*
X007221Y001723D03*
X004231Y001773D03*
X003562Y001773D03*
D29*
X004632Y009262D03*
X005341Y009262D03*
X005341Y010404D03*
X004632Y010404D03*
D30*
X002047Y013283D02*
X002097Y013523D01*
X002047Y013553D01*
X001997Y013523D01*
X002047Y013283D01*
X002046Y013287D02*
X002048Y013287D01*
X002044Y013296D02*
X002049Y013296D01*
X002051Y013304D02*
X002042Y013304D01*
X002040Y013313D02*
X002053Y013313D01*
X002055Y013321D02*
X002039Y013321D01*
X002037Y013330D02*
X002056Y013330D01*
X002058Y013338D02*
X002035Y013338D01*
X002033Y013347D02*
X002060Y013347D01*
X002062Y013355D02*
X002032Y013355D01*
X002030Y013364D02*
X002064Y013364D01*
X002065Y013372D02*
X002028Y013372D01*
X002026Y013381D02*
X002067Y013381D01*
X002069Y013389D02*
X002025Y013389D01*
X002023Y013398D02*
X002071Y013398D01*
X002072Y013406D02*
X002021Y013406D01*
X002019Y013415D02*
X002074Y013415D01*
X002076Y013423D02*
X002017Y013423D01*
X002016Y013432D02*
X002078Y013432D01*
X002079Y013440D02*
X002014Y013440D01*
X002012Y013449D02*
X002081Y013449D01*
X002083Y013457D02*
X002010Y013457D01*
X002009Y013466D02*
X002085Y013466D01*
X002087Y013474D02*
X002007Y013474D01*
X002005Y013483D02*
X002088Y013483D01*
X002090Y013491D02*
X002003Y013491D01*
X002001Y013500D02*
X002092Y013500D01*
X002094Y013508D02*
X002000Y013508D01*
X001998Y013517D02*
X002095Y013517D01*
X002093Y013525D02*
X002001Y013525D01*
X002015Y013534D02*
X002079Y013534D01*
X002064Y013542D02*
X002029Y013542D01*
X002043Y013551D02*
X002050Y013551D01*
X002079Y013593D02*
X002247Y013593D01*
X002252Y013585D02*
X002093Y013585D01*
X002106Y013576D02*
X002258Y013576D01*
X002263Y013568D02*
X002120Y013568D01*
X002134Y013559D02*
X002269Y013559D01*
X002274Y013551D02*
X002148Y013551D01*
X002162Y013542D02*
X002280Y013542D01*
X002285Y013534D02*
X002176Y013534D01*
X002190Y013525D02*
X002291Y013525D01*
X002296Y013517D02*
X002203Y013517D01*
X002217Y013508D02*
X002302Y013508D01*
X002307Y013500D02*
X002231Y013500D01*
X002245Y013491D02*
X002313Y013491D01*
X002318Y013483D02*
X002259Y013483D01*
X002273Y013474D02*
X002324Y013474D01*
X002329Y013466D02*
X002287Y013466D01*
X002301Y013457D02*
X002334Y013457D01*
X002340Y013449D02*
X002314Y013449D01*
X002328Y013440D02*
X002345Y013440D01*
X002342Y013432D02*
X002351Y013432D01*
X002356Y013423D02*
X002356Y013423D01*
X002357Y013423D02*
X002157Y013733D01*
X002357Y014033D01*
X002047Y013843D01*
X001747Y014033D01*
X001937Y013733D01*
X001737Y013413D01*
X002047Y013613D01*
X002357Y013423D01*
X002241Y013602D02*
X002065Y013602D01*
X002051Y013610D02*
X002236Y013610D01*
X002230Y013619D02*
X001865Y013619D01*
X001860Y013610D02*
X002043Y013610D01*
X002029Y013602D02*
X001855Y013602D01*
X001849Y013593D02*
X002016Y013593D01*
X002003Y013585D02*
X001844Y013585D01*
X001839Y013576D02*
X001990Y013576D01*
X001977Y013568D02*
X001833Y013568D01*
X001828Y013559D02*
X001964Y013559D01*
X001950Y013551D02*
X001823Y013551D01*
X001818Y013542D02*
X001937Y013542D01*
X001924Y013534D02*
X001812Y013534D01*
X001807Y013525D02*
X001911Y013525D01*
X001898Y013517D02*
X001802Y013517D01*
X001796Y013508D02*
X001885Y013508D01*
X001871Y013500D02*
X001791Y013500D01*
X001786Y013491D02*
X001858Y013491D01*
X001845Y013483D02*
X001780Y013483D01*
X001775Y013474D02*
X001832Y013474D01*
X001819Y013466D02*
X001770Y013466D01*
X001764Y013457D02*
X001805Y013457D01*
X001792Y013449D02*
X001759Y013449D01*
X001754Y013440D02*
X001779Y013440D01*
X001766Y013432D02*
X001748Y013432D01*
X001743Y013423D02*
X001753Y013423D01*
X001740Y013415D02*
X001738Y013415D01*
X001871Y013627D02*
X002225Y013627D01*
X002219Y013636D02*
X001876Y013636D01*
X001881Y013644D02*
X002214Y013644D01*
X002208Y013653D02*
X001887Y013653D01*
X001892Y013661D02*
X002203Y013661D01*
X002197Y013670D02*
X001897Y013670D01*
X001903Y013678D02*
X002192Y013678D01*
X002186Y013687D02*
X001908Y013687D01*
X001913Y013695D02*
X002181Y013695D01*
X002175Y013704D02*
X001918Y013704D01*
X001924Y013712D02*
X002170Y013712D01*
X002164Y013721D02*
X001929Y013721D01*
X001934Y013729D02*
X002159Y013729D01*
X002160Y013738D02*
X001934Y013738D01*
X001928Y013746D02*
X002166Y013746D01*
X002171Y013755D02*
X001923Y013755D01*
X001917Y013763D02*
X002177Y013763D01*
X002183Y013772D02*
X001912Y013772D01*
X001907Y013780D02*
X002188Y013780D01*
X002194Y013789D02*
X001901Y013789D01*
X001896Y013797D02*
X002200Y013797D01*
X002205Y013806D02*
X001891Y013806D01*
X001885Y013814D02*
X002211Y013814D01*
X002217Y013823D02*
X001880Y013823D01*
X001874Y013831D02*
X002222Y013831D01*
X002228Y013840D02*
X001869Y013840D01*
X001864Y013848D02*
X002038Y013848D01*
X002025Y013857D02*
X001858Y013857D01*
X001853Y013865D02*
X002011Y013865D01*
X001998Y013874D02*
X001847Y013874D01*
X001842Y013882D02*
X001984Y013882D01*
X001971Y013891D02*
X001837Y013891D01*
X001831Y013899D02*
X001958Y013899D01*
X001944Y013908D02*
X001826Y013908D01*
X001821Y013916D02*
X001931Y013916D01*
X001917Y013925D02*
X001815Y013925D01*
X001810Y013933D02*
X001904Y013933D01*
X001891Y013942D02*
X001804Y013942D01*
X001799Y013950D02*
X001877Y013950D01*
X001864Y013959D02*
X001794Y013959D01*
X001788Y013967D02*
X001850Y013967D01*
X001837Y013976D02*
X001783Y013976D01*
X001777Y013984D02*
X001823Y013984D01*
X001810Y013993D02*
X001772Y013993D01*
X001767Y014001D02*
X001797Y014001D01*
X001783Y014010D02*
X001761Y014010D01*
X001756Y014018D02*
X001770Y014018D01*
X001756Y014027D02*
X001751Y014027D01*
X002006Y013976D02*
X002088Y013976D01*
X002090Y013967D02*
X002004Y013967D01*
X002002Y013959D02*
X002091Y013959D01*
X002093Y013950D02*
X002000Y013950D01*
X001999Y013942D02*
X002095Y013942D01*
X002097Y013933D02*
X001997Y013933D01*
X002047Y013903D01*
X002097Y013933D01*
X002047Y014173D01*
X001997Y013933D01*
X002010Y013925D02*
X002083Y013925D01*
X002069Y013916D02*
X002024Y013916D01*
X002039Y013908D02*
X002055Y013908D01*
X002083Y013865D02*
X002245Y013865D01*
X002239Y013857D02*
X002069Y013857D01*
X002055Y013848D02*
X002234Y013848D01*
X002251Y013874D02*
X002097Y013874D01*
X002111Y013882D02*
X002256Y013882D01*
X002262Y013891D02*
X002125Y013891D01*
X002139Y013899D02*
X002268Y013899D01*
X002273Y013908D02*
X002153Y013908D01*
X002166Y013916D02*
X002279Y013916D01*
X002285Y013925D02*
X002180Y013925D01*
X002194Y013933D02*
X002290Y013933D01*
X002296Y013942D02*
X002208Y013942D01*
X002222Y013950D02*
X002302Y013950D01*
X002307Y013959D02*
X002236Y013959D01*
X002250Y013967D02*
X002313Y013967D01*
X002319Y013976D02*
X002263Y013976D01*
X002277Y013984D02*
X002324Y013984D01*
X002330Y013993D02*
X002291Y013993D01*
X002305Y014001D02*
X002336Y014001D01*
X002341Y014010D02*
X002319Y014010D01*
X002333Y014018D02*
X002347Y014018D01*
X002347Y014027D02*
X002353Y014027D01*
X002308Y013772D02*
X002250Y013772D01*
X002255Y013780D02*
X002269Y013780D01*
X002257Y013783D02*
X002227Y013733D01*
X002257Y013683D01*
X002487Y013733D01*
X002257Y013783D01*
X002245Y013763D02*
X002347Y013763D01*
X002386Y013755D02*
X002240Y013755D01*
X002235Y013746D02*
X002425Y013746D01*
X002431Y013721D02*
X002234Y013721D01*
X002229Y013729D02*
X002470Y013729D01*
X002464Y013738D02*
X002230Y013738D01*
X002239Y013712D02*
X002392Y013712D01*
X002353Y013704D02*
X002244Y013704D01*
X002249Y013695D02*
X002314Y013695D01*
X002275Y013687D02*
X002254Y013687D01*
X002086Y013984D02*
X002007Y013984D01*
X002009Y013993D02*
X002084Y013993D01*
X002082Y014001D02*
X002011Y014001D01*
X002013Y014010D02*
X002081Y014010D01*
X002079Y014018D02*
X002014Y014018D01*
X002016Y014027D02*
X002077Y014027D01*
X002075Y014035D02*
X002018Y014035D01*
X002020Y014044D02*
X002074Y014044D01*
X002072Y014052D02*
X002022Y014052D01*
X002023Y014061D02*
X002070Y014061D01*
X002068Y014069D02*
X002025Y014069D01*
X002027Y014078D02*
X002066Y014078D01*
X002065Y014086D02*
X002029Y014086D01*
X002030Y014095D02*
X002063Y014095D01*
X002061Y014103D02*
X002032Y014103D01*
X002034Y014112D02*
X002059Y014112D01*
X002058Y014120D02*
X002036Y014120D01*
X002037Y014129D02*
X002056Y014129D01*
X002054Y014137D02*
X002039Y014137D01*
X002041Y014146D02*
X002052Y014146D01*
X002051Y014154D02*
X002043Y014154D01*
X002045Y014163D02*
X002049Y014163D01*
X002046Y014171D02*
X002047Y014171D01*
X001837Y013783D02*
X001607Y013733D01*
X001837Y013683D01*
X001877Y013733D01*
X001837Y013783D01*
X001839Y013780D02*
X001825Y013780D01*
X001846Y013772D02*
X001786Y013772D01*
X001746Y013763D02*
X001852Y013763D01*
X001859Y013755D02*
X001707Y013755D01*
X001668Y013746D02*
X001866Y013746D01*
X001873Y013738D02*
X001629Y013738D01*
X001623Y013729D02*
X001874Y013729D01*
X001867Y013721D02*
X001662Y013721D01*
X001701Y013712D02*
X001860Y013712D01*
X001853Y013704D02*
X001741Y013704D01*
X001780Y013695D02*
X001847Y013695D01*
X001840Y013687D02*
X001819Y013687D01*
D31*
X003017Y013357D03*
X003273Y012649D03*
X002761Y012649D03*
D32*
X003077Y011828D03*
X003077Y011158D03*
X007487Y011188D03*
X007487Y011858D03*
D33*
X007028Y012007D03*
X007028Y011633D03*
X007028Y011259D03*
X005925Y011259D03*
X005925Y011633D03*
X005925Y012007D03*
D34*
X006477Y011633D03*
D35*
X005457Y011906D03*
X005457Y011000D03*
D36*
X004857Y011443D03*
X003597Y011443D03*
M02*
