%
M48
M72
T01C0.0118
T02C0.0120
T03C0.0200
T04C0.0236
T05C0.0350
%
T01
X2127Y1293
X3367Y1293
X4187Y1293
X5147Y1293
X5137Y2093
X5867Y2083
X6157Y1293
X6957Y1293
X7047Y923
X7047Y553
X7897Y553
X8297Y953
X7217Y2853
X7857Y3893
X7867Y4903
X5947Y4793
X4997Y4783
X3577Y4203
X2577Y2923
X2167Y5753
X2367Y6653
X2767Y7753
X2757Y8083
X5187Y8763
X6247Y8933
X7167Y7753
X6079Y13833
X3894Y13833
T02
X4897Y13243
X5287Y13243
X4037Y12133
X3757Y12133
X3597Y12433
X2617Y11063
X2377Y10573
X2347Y9893
X3737Y10573
X4137Y10853
X5697Y11763
X6297Y10973
X5857Y10903
X6237Y10413
X6727Y11043
X7617Y10573
X6217Y9323
X6907Y8813
X7856Y8485
X6537Y6983
X6187Y6873
X5827Y6873
X5057Y6793
X4527Y6333
X4137Y6873
X3537Y6243
X3977Y5753
X3567Y4803
X4497Y4773
X5477Y3923
X5857Y3883
X6227Y3863
X6527Y3623
X6487Y4433
X6407Y5633
X6437Y6203
X7547Y6223
X7557Y6603
X8137Y6433
X8097Y5223
X8097Y4223
X8097Y3223
X3997Y3603
X2057Y3833
X2567Y5153
X2567Y5693
X1987Y7533
X4147Y9143
X6697Y12153
T03
X7947Y12213
T04
X5754Y13006
X4219Y13006
T05
X1487Y1833
X1487Y2833
X1487Y3833
X1487Y4833
X1487Y5833
X1487Y6833
X1487Y7833
X1487Y8833
X1487Y9833
X1487Y10833
X1487Y11833
X1487Y12833
X8487Y12833
X8487Y11833
X8487Y10833
X8487Y9833
X8487Y8833
X8487Y7833
X8487Y6833
X8487Y5833
X8487Y4833
X8487Y3833
X8487Y2833
X8487Y1833
M30
